<?xml version="1.0" encoding="UTF-8"?>
<!DOCTYPE svg PUBLIC "-//W3C//DTD SVG 1.1//EN" "http://www.w3.org/Graphics/SVG/1.1/DTD/svg11.dtd">
<svg width="546mm" height="170mm" viewBox="0 0 54600 17000" version="1.1" xmlns="http://www.w3.org/2000/svg" xmlns:xlink="http://www.w3.org/1999/xlink" stroke-width="28.222" stroke-linejoin="round" xml:space="preserve">
 <path fill="rgb(68,114,196)" stroke="none" d="M 35,35 L 54521,35 54521,16968 35,16968 35,35 Z"/>
 <path fill="none" stroke="rgb(47,82,143)" stroke-width="35" d="M 18,18 L 54538,18 54538,16986 18,16986 18,18 Z"/>
 <path fill="rgb(255,255,255)" stroke="none" d="M 27278,16955 L 48,16955 48,48 54508,48 54508,16955 27278,16955 Z"/>
 <path fill="none" stroke="rgb(217,217,217)" stroke-width="26" stroke-linejoin="round" d="M 27278,16955 L 48,16955 48,48 54508,48 54508,16955 27278,16955 Z"/>
 <path fill="none" stroke="rgb(217,217,217)" stroke-width="26" stroke-linejoin="round" d="M 53420,8770 L 1660,8770"/>
 <path fill="none" stroke="rgb(217,217,217)" stroke-width="26" stroke-linejoin="round" d="M 53420,7135 L 1660,7135"/>
 <path fill="none" stroke="rgb(217,217,217)" stroke-width="26" stroke-linejoin="round" d="M 53420,5500 L 1660,5500"/>
 <path fill="none" stroke="rgb(217,217,217)" stroke-width="26" stroke-linejoin="round" d="M 53420,3866 L 1660,3866"/>
 <path fill="none" stroke="rgb(217,217,217)" stroke-width="26" stroke-linejoin="round" d="M 53420,2231 L 1660,2231"/>
 <path fill="none" stroke="rgb(217,217,217)" stroke-width="26" stroke-linejoin="round" d="M 53420,597 L 1660,597"/>
 <path fill="none" stroke="rgb(217,217,217)" stroke-width="26" stroke-linejoin="round" d="M 1660,8770 L 53420,8770"/>
 <path fill="rgb(165,165,165)" stroke="none" d="M 52894,8770 L 53194,8770 53194,5828 52894,5828 52894,8770 Z"/>
 <path fill="rgb(165,165,165)" stroke="none" d="M 52144,8770 L 52444,8770 52444,7462 52144,7462 52144,8770 Z"/>
 <path fill="rgb(165,165,165)" stroke="none" d="M 51394,8770 L 51693,8770 51693,8116 51394,8116 51394,8770 Z"/>
 <path fill="rgb(165,165,165)" stroke="none" d="M 50644,8770 L 50944,8770 50944,4520 50644,4520 50644,8770 Z"/>
 <path fill="rgb(165,165,165)" stroke="none" d="M 49893,8770 L 50193,8770 50193,6808 49893,6808 49893,8770 Z"/>
 <path fill="rgb(165,165,165)" stroke="none" d="M 49144,8770 L 49444,8770 49444,7462 49144,7462 49144,8770 Z"/>
 <path fill="rgb(165,165,165)" stroke="none" d="M 48393,8770 L 48693,8770 48693,6481 48393,6481 48393,8770 Z"/>
 <path fill="rgb(165,165,165)" stroke="none" d="M 47643,8770 L 47943,8770 47943,8443 47643,8443 47643,8770 Z"/>
 <path fill="rgb(165,165,165)" stroke="none" d="M 45393,8770 L 45692,8770 45692,6481 45393,6481 45393,8770 Z"/>
 <path fill="rgb(165,165,165)" stroke="none" d="M 44643,8770 L 44943,8770 44943,7789 44643,7789 44643,8770 Z"/>
 <path fill="rgb(165,165,165)" stroke="none" d="M 43143,8770 L 43442,8770 43442,7135 43143,7135 43143,8770 Z"/>
 <path fill="rgb(165,165,165)" stroke="none" d="M 41642,8770 L 41942,8770 41942,8116 41642,8116 41642,8770 Z"/>
 <path fill="rgb(165,165,165)" stroke="none" d="M 40892,8770 L 41192,8770 41192,8443 40892,8443 40892,8770 Z"/>
 <path fill="rgb(165,165,165)" stroke="none" d="M 39391,8770 L 39691,8770 39691,7789 39391,7789 39391,8770 Z"/>
 <path fill="rgb(165,165,165)" stroke="none" d="M 38642,8770 L 38942,8770 38942,7789 38642,7789 38642,8770 Z"/>
 <path fill="rgb(165,165,165)" stroke="none" d="M 37891,8770 L 38191,8770 38191,8443 37891,8443 37891,8770 Z"/>
 <path fill="rgb(165,165,165)" stroke="none" d="M 37141,8770 L 37441,8770 37441,8443 37141,8443 37141,8770 Z"/>
 <path fill="rgb(165,165,165)" stroke="none" d="M 35640,8770 L 35941,8770 35941,8443 35640,8443 35640,8770 Z"/>
 <path fill="rgb(165,165,165)" stroke="none" d="M 34891,8770 L 35191,8770 35191,8116 34891,8116 34891,8770 Z"/>
 <path fill="rgb(165,165,165)" stroke="none" d="M 34140,8770 L 34441,8770 34441,8116 34140,8116 34140,8770 Z"/>
 <path fill="rgb(165,165,165)" stroke="none" d="M 33390,8770 L 33690,8770 33690,8443 33390,8443 33390,8770 Z"/>
 <path fill="rgb(165,165,165)" stroke="none" d="M 32640,8770 L 32941,8770 32941,8443 32640,8443 32640,8770 Z"/>
 <path fill="rgb(165,165,165)" stroke="none" d="M 31890,8770 L 32190,8770 32190,6154 31890,6154 31890,8770 Z"/>
 <path fill="rgb(165,165,165)" stroke="none" d="M 31140,8770 L 31440,8770 31440,8443 31140,8443 31140,8770 Z"/>
 <path fill="rgb(165,165,165)" stroke="none" d="M 30390,8770 L 30690,8770 30690,8443 30390,8443 30390,8770 Z"/>
 <path fill="rgb(165,165,165)" stroke="none" d="M 28890,8770 L 29190,8770 29190,8443 28890,8443 28890,8770 Z"/>
 <path fill="rgb(165,165,165)" stroke="none" d="M 28139,8770 L 28440,8770 28440,8443 28139,8443 28139,8770 Z"/>
 <path fill="rgb(165,165,165)" stroke="none" d="M 26639,8770 L 26940,8770 26940,7789 26639,7789 26639,8770 Z"/>
 <path fill="rgb(165,165,165)" stroke="none" d="M 25889,8770 L 26189,8770 26189,8443 25889,8443 25889,8770 Z"/>
 <path fill="rgb(165,165,165)" stroke="none" d="M 25139,8770 L 25439,8770 25439,8443 25139,8443 25139,8770 Z"/>
 <path fill="rgb(165,165,165)" stroke="none" d="M 24389,8770 L 24689,8770 24689,8443 24389,8443 24389,8770 Z"/>
 <path fill="rgb(165,165,165)" stroke="none" d="M 23638,8770 L 23939,8770 23939,8443 23638,8443 23638,8770 Z"/>
 <path fill="rgb(165,165,165)" stroke="none" d="M 22889,8770 L 23189,8770 23189,8443 22889,8443 22889,8770 Z"/>
 <path fill="rgb(165,165,165)" stroke="none" d="M 22138,8770 L 22439,8770 22439,8443 22138,8443 22138,8770 Z"/>
 <path fill="rgb(165,165,165)" stroke="none" d="M 21388,8770 L 21688,8770 21688,6808 21388,6808 21388,8770 Z"/>
 <path fill="rgb(165,165,165)" stroke="none" d="M 19888,8770 L 20188,8770 20188,8443 19888,8443 19888,8770 Z"/>
 <path fill="rgb(165,165,165)" stroke="none" d="M 19138,8770 L 19438,8770 19438,8443 19138,8443 19138,8770 Z"/>
 <path fill="rgb(165,165,165)" stroke="none" d="M 18388,8770 L 18688,8770 18688,8443 18388,8443 18388,8770 Z"/>
 <path fill="rgb(165,165,165)" stroke="none" d="M 17637,8770 L 17938,8770 17938,8443 17637,8443 17637,8770 Z"/>
 <path fill="rgb(165,165,165)" stroke="none" d="M 16888,8770 L 17188,8770 17188,8116 16888,8116 16888,8770 Z"/>
 <path fill="rgb(165,165,165)" stroke="none" d="M 16137,8770 L 16437,8770 16437,8443 16137,8443 16137,8770 Z"/>
 <path fill="rgb(165,165,165)" stroke="none" d="M 15387,8770 L 15687,8770 15687,8443 15387,8443 15387,8770 Z"/>
 <path fill="rgb(165,165,165)" stroke="none" d="M 14637,8770 L 14937,8770 14937,8443 14637,8443 14637,8770 Z"/>
 <path fill="rgb(165,165,165)" stroke="none" d="M 13887,8770 L 14187,8770 14187,8443 13887,8443 13887,8770 Z"/>
 <path fill="rgb(165,165,165)" stroke="none" d="M 13137,8770 L 13436,8770 13436,8443 13137,8443 13137,8770 Z"/>
 <path fill="rgb(165,165,165)" stroke="none" d="M 12387,8770 L 12687,8770 12687,8443 12387,8443 12387,8770 Z"/>
 <path fill="rgb(165,165,165)" stroke="none" d="M 11636,8770 L 11936,8770 11936,8443 11636,8443 11636,8770 Z"/>
 <path fill="rgb(165,165,165)" stroke="none" d="M 10887,8770 L 11186,8770 11186,8443 10887,8443 10887,8770 Z"/>
 <path fill="rgb(165,165,165)" stroke="none" d="M 10136,8770 L 10436,8770 10436,8443 10136,8443 10136,8770 Z"/>
 <path fill="rgb(165,165,165)" stroke="none" d="M 7886,8770 L 8186,8770 8186,8443 7886,8443 7886,8770 Z"/>
 <path fill="rgb(165,165,165)" stroke="none" d="M 7135,8770 L 7435,8770 7435,8443 7135,8443 7135,8770 Z"/>
 <path fill="rgb(165,165,165)" stroke="none" d="M 6386,8770 L 6686,8770 6686,8443 6386,8443 6386,8770 Z"/>
 <path fill="rgb(165,165,165)" stroke="none" d="M 5635,8770 L 5935,8770 5935,8443 5635,8443 5635,8770 Z"/>
 <path fill="rgb(165,165,165)" stroke="none" d="M 4886,8770 L 5185,8770 5185,8116 4886,8116 4886,8770 Z"/>
 <path fill="rgb(165,165,165)" stroke="none" d="M 4135,8770 L 4435,8770 4435,8443 4135,8443 4135,8770 Z"/>
 <path fill="rgb(165,165,165)" stroke="none" d="M 3385,8770 L 3685,8770 3685,8116 3385,8116 3385,8770 Z"/>
 <path fill="rgb(165,165,165)" stroke="none" d="M 2635,8770 L 2935,8770 2935,8116 2635,8116 2635,8770 Z"/>
 <path fill="rgb(165,165,165)" stroke="none" d="M 1885,8770 L 2185,8770 2185,8116 1885,8116 1885,8770 Z"/>
 <path fill="rgb(255,192,0)" stroke="none" d="M 52894,5828 L 53194,5828 53194,3538 52894,3538 52894,5828 Z"/>
 <path fill="rgb(255,192,0)" stroke="none" d="M 52144,7462 L 52444,7462 52444,5500 52144,5500 52144,7462 Z"/>
 <path fill="rgb(255,192,0)" stroke="none" d="M 51394,8116 L 51693,8116 51693,7462 51394,7462 51394,8116 Z"/>
 <path fill="rgb(255,192,0)" stroke="none" d="M 50644,4520 L 50944,4520 50944,1904 50644,1904 50644,4520 Z"/>
 <path fill="rgb(255,192,0)" stroke="none" d="M 49893,6808 L 50193,6808 50193,5828 49893,5828 49893,6808 Z"/>
 <path fill="rgb(255,192,0)" stroke="none" d="M 49144,7462 L 49444,7462 49444,5174 49144,5174 49144,7462 Z"/>
 <path fill="rgb(255,192,0)" stroke="none" d="M 48393,6481 L 48693,6481 48693,4846 48393,4846 48393,6481 Z"/>
 <path fill="rgb(255,192,0)" stroke="none" d="M 47643,8443 L 47943,8443 47943,7135 47643,7135 47643,8443 Z"/>
 <path fill="rgb(255,192,0)" stroke="none" d="M 46893,8770 L 47193,8770 47193,8770 46893,8770 Z"/>
 <path fill="rgb(255,192,0)" stroke="none" d="M 46143,8770 L 46443,8770 46443,8443 46143,8443 46143,8770 Z"/>
 <path fill="rgb(255,192,0)" stroke="none" d="M 45393,6481 L 45692,6481 45692,6154 45393,6154 45393,6481 Z"/>
 <path fill="rgb(255,192,0)" stroke="none" d="M 44643,7789 L 44943,7789 44943,7135 44643,7135 44643,7789 Z"/>
 <path fill="rgb(255,192,0)" stroke="none" d="M 43892,8770 L 44192,8770 44192,8770 43892,8770 Z"/>
 <path fill="rgb(255,192,0)" stroke="none" d="M 43143,7135 L 43442,7135 43442,4846 43143,4846 43143,7135 Z"/>
 <path fill="rgb(255,192,0)" stroke="none" d="M 42392,8770 L 42692,8770 42692,8770 42392,8770 Z"/>
 <path fill="rgb(255,192,0)" stroke="none" d="M 41642,8116 L 41942,8116 41942,7789 41642,7789 41642,8116 Z"/>
 <path fill="rgb(255,192,0)" stroke="none" d="M 40142,8770 L 40442,8770 40442,8770 40142,8770 Z"/>
 <path fill="rgb(255,192,0)" stroke="none" d="M 39391,7789 L 39691,7789 39691,7135 39391,7135 39391,7789 Z"/>
 <path fill="rgb(255,192,0)" stroke="none" d="M 38642,7789 L 38942,7789 38942,7135 38642,7135 38642,7789 Z"/>
 <path fill="rgb(255,192,0)" stroke="none" d="M 37141,8443 L 37441,8443 37441,7789 37141,7789 37141,8443 Z"/>
 <path fill="rgb(255,192,0)" stroke="none" d="M 36391,8770 L 36691,8770 36691,8770 36391,8770 Z"/>
 <path fill="rgb(255,192,0)" stroke="none" d="M 35640,8443 L 35941,8443 35941,8116 35640,8116 35640,8443 Z"/>
 <path fill="rgb(255,192,0)" stroke="none" d="M 34891,8116 L 35191,8116 35191,7789 34891,7789 34891,8116 Z"/>
 <path fill="rgb(255,192,0)" stroke="none" d="M 34140,8116 L 34441,8116 34441,7789 34140,7789 34140,8116 Z"/>
 <path fill="rgb(255,192,0)" stroke="none" d="M 31890,6154 L 32190,6154 32190,5500 31890,5500 31890,6154 Z"/>
 <path fill="rgb(255,192,0)" stroke="none" d="M 30390,8443 L 30690,8443 30690,8116 30390,8116 30390,8443 Z"/>
 <path fill="rgb(255,192,0)" stroke="none" d="M 29639,8770 L 29940,8770 29940,8770 29639,8770 Z"/>
 <path fill="rgb(255,192,0)" stroke="none" d="M 28890,8443 L 29190,8443 29190,8116 28890,8116 28890,8443 Z"/>
 <path fill="rgb(255,192,0)" stroke="none" d="M 27389,8770 L 27689,8770 27689,8770 27389,8770 Z"/>
 <path fill="rgb(255,192,0)" stroke="none" d="M 26639,7789 L 26940,7789 26940,6808 26639,6808 26639,7789 Z"/>
 <path fill="rgb(255,192,0)" stroke="none" d="M 25139,8443 L 25439,8443 25439,7789 25139,7789 25139,8443 Z"/>
 <path fill="rgb(255,192,0)" stroke="none" d="M 24389,8443 L 24689,8443 24689,8116 24389,8116 24389,8443 Z"/>
 <path fill="rgb(255,192,0)" stroke="none" d="M 23638,8443 L 23939,8443 23939,7462 23638,7462 23638,8443 Z"/>
 <path fill="rgb(255,192,0)" stroke="none" d="M 22889,8443 L 23189,8443 23189,8116 22889,8116 22889,8443 Z"/>
 <path fill="rgb(255,192,0)" stroke="none" d="M 22138,8443 L 22439,8443 22439,7462 22138,7462 22138,8443 Z"/>
 <path fill="rgb(255,192,0)" stroke="none" d="M 21388,6808 L 21688,6808 21688,5828 21388,5828 21388,6808 Z"/>
 <path fill="rgb(255,192,0)" stroke="none" d="M 20638,8770 L 20939,8770 20939,8770 20638,8770 Z"/>
 <path fill="rgb(255,192,0)" stroke="none" d="M 18388,8443 L 18688,8443 18688,7789 18388,7789 18388,8443 Z"/>
 <path fill="rgb(255,192,0)" stroke="none" d="M 17637,8443 L 17938,8443 17938,6808 17637,6808 17637,8443 Z"/>
 <path fill="rgb(255,192,0)" stroke="none" d="M 16888,8116 L 17188,8116 17188,7789 16888,7789 16888,8116 Z"/>
 <path fill="rgb(255,192,0)" stroke="none" d="M 16137,8443 L 16437,8443 16437,8116 16137,8116 16137,8443 Z"/>
 <path fill="rgb(255,192,0)" stroke="none" d="M 15387,8443 L 15687,8443 15687,6808 15387,6808 15387,8443 Z"/>
 <path fill="rgb(255,192,0)" stroke="none" d="M 14637,8443 L 14937,8443 14937,8116 14637,8116 14637,8443 Z"/>
 <path fill="rgb(255,192,0)" stroke="none" d="M 13887,8443 L 14187,8443 14187,7462 13887,7462 13887,8443 Z"/>
 <path fill="rgb(255,192,0)" stroke="none" d="M 13137,8443 L 13436,8443 13436,7462 13137,7462 13137,8443 Z"/>
 <path fill="rgb(255,192,0)" stroke="none" d="M 12387,8443 L 12687,8443 12687,7789 12387,7789 12387,8443 Z"/>
 <path fill="rgb(255,192,0)" stroke="none" d="M 11636,8443 L 11936,8443 11936,7462 11636,7462 11636,8443 Z"/>
 <path fill="rgb(255,192,0)" stroke="none" d="M 10887,8443 L 11186,8443 11186,7462 10887,7462 10887,8443 Z"/>
 <path fill="rgb(255,192,0)" stroke="none" d="M 10136,8443 L 10436,8443 10436,7789 10136,7789 10136,8443 Z"/>
 <path fill="rgb(255,192,0)" stroke="none" d="M 9386,8770 L 9686,8770 9686,8770 9386,8770 Z"/>
 <path fill="rgb(255,192,0)" stroke="none" d="M 8636,8770 L 8936,8770 8936,8770 8636,8770 Z"/>
 <path fill="rgb(255,192,0)" stroke="none" d="M 7135,8443 L 7435,8443 7435,8116 7135,8116 7135,8443 Z"/>
 <path fill="rgb(255,192,0)" stroke="none" d="M 6386,8443 L 6686,8443 6686,8116 6386,8116 6386,8443 Z"/>
 <path fill="rgb(255,192,0)" stroke="none" d="M 5635,8443 L 5935,8443 5935,8116 5635,8116 5635,8443 Z"/>
 <path fill="rgb(255,192,0)" stroke="none" d="M 4135,8443 L 4435,8443 4435,7135 4135,7135 4135,8443 Z"/>
 <path fill="rgb(255,192,0)" stroke="none" d="M 2635,8116 L 2935,8116 2935,7789 2635,7789 2635,8116 Z"/>
 <text class="TextShape" transform="rotate(-69.9 1531 10817)"><tspan class="TextParagraph" font-family="Liberation Sans Narrow, sans-serif" font-size="423px" font-weight="400"><tspan class="TextPosition" x="1531" y="10817"><tspan fill="rgb(89,89,89)" stroke="none">King&apos;s Field</tspan></tspan></tspan></text>
 <text class="TextShape" transform="rotate(-69.9 2172 11115)"><tspan class="TextParagraph" font-family="Liberation Sans Narrow, sans-serif" font-size="423px" font-weight="400"><tspan class="TextPosition" x="2172" y="11115"><tspan fill="rgb(89,89,89)" stroke="none">King&apos;s Field II</tspan></tspan></tspan></text>
 <text class="TextShape" transform="rotate(-69.9 2887 11214)"><tspan class="TextParagraph" font-family="Liberation Sans Narrow, sans-serif" font-size="423px" font-weight="400"><tspan class="TextPosition" x="2887" y="11214"><tspan fill="rgb(89,89,89)" stroke="none">King&apos;s Field III</tspan></tspan></tspan></text>
 <text class="TextShape" transform="rotate(-69.9 3672 11115)"><tspan class="TextParagraph" font-family="Liberation Sans Narrow, sans-serif" font-size="423px" font-weight="400"><tspan class="TextPosition" x="3672" y="11115"><tspan fill="rgb(89,89,89)" stroke="none">Armored Core</tspan></tspan></tspan></text>
 <text class="TextShape" transform="rotate(-69.9 2814 15533)"><tspan class="TextParagraph" font-family="Liberation Sans Narrow, sans-serif" font-size="423px" font-weight="400"><tspan class="TextPosition" x="2814" y="15533"><tspan fill="rgb(89,89,89)" stroke="none">ARMORED CORE PROJECT PHANTASMA</tspan></tspan></tspan></text>
 <text class="TextShape" transform="rotate(-69.9 5317 10717)"><tspan class="TextParagraph" font-family="Liberation Sans Narrow, sans-serif" font-size="423px" font-weight="400"><tspan class="TextPosition" x="5317" y="10717"><tspan fill="rgb(89,89,89)" stroke="none">Echo Night</tspan></tspan></tspan></text>
 <text class="TextShape" transform="rotate(-69.9 5878 11238)"><tspan class="TextParagraph" font-family="Liberation Sans Narrow, sans-serif" font-size="423px" font-weight="400"><tspan class="TextPosition" x="5878" y="11238"><tspan fill="rgb(89,89,89)" stroke="none">Shadow Tower</tspan></tspan></tspan></text>
 <text class="TextShape" transform="rotate(-69.9 5252 15012)"><tspan class="TextParagraph" font-family="Liberation Sans Narrow, sans-serif" font-size="423px" font-weight="400"><tspan class="TextPosition" x="5252" y="15012"><tspan fill="rgb(89,89,89)" stroke="none">ARMORED CORE MASTER OF ARENA</tspan></tspan></tspan></text>
 <text class="TextShape" transform="rotate(-69.9 7315 11412)"><tspan class="TextParagraph" font-family="Liberation Sans Narrow, sans-serif" font-size="423px" font-weight="400"><tspan class="TextPosition" x="7315" y="11412"><tspan fill="rgb(89,89,89)" stroke="none">ECHO NIGHT 2</tspan></tspan></tspan></text>
 <text class="TextShape" transform="rotate(-69.9 8073 11387)"><tspan class="TextParagraph" font-family="Liberation Sans Narrow, sans-serif" font-size="423px" font-weight="400"><tspan class="TextPosition" x="8073" y="11387"><tspan fill="rgb(89,89,89)" stroke="none">FRAME GRIDE</tspan></tspan></tspan></text>
 <text class="TextShape" transform="rotate(-69.9 8082 13423)"><tspan class="TextParagraph" font-family="Liberation Sans Narrow, sans-serif" font-size="423px" font-weight="400"><tspan class="TextPosition" x="8082" y="13423"><tspan fill="rgb(89,89,89)" stroke="none">SPRIGGAN -LUNAR VERSE-</tspan></tspan></tspan></text>
 <text class="TextShape" transform="rotate(-69.9 9573 11387)"><tspan class="TextParagraph" font-family="Liberation Sans Narrow, sans-serif" font-size="423px" font-weight="400"><tspan class="TextPosition" x="9573" y="11387"><tspan fill="rgb(89,89,89)" stroke="none">Armored Core 2</tspan></tspan></tspan></text>
 <text class="TextShape" transform="rotate(-69.9 10588 10667)"><tspan class="TextParagraph" font-family="Liberation Sans Narrow, sans-serif" font-size="423px" font-weight="400"><tspan class="TextPosition" x="10588" y="10667"><tspan fill="rgb(89,89,89)" stroke="none">EverGrace</tspan></tspan></tspan></text>
 <text class="TextShape" transform="rotate(-69.9 10034 14242)"><tspan class="TextParagraph" font-family="Liberation Sans Narrow, sans-serif" font-size="423px" font-weight="400"><tspan class="TextPosition" x="10034" y="14242"><tspan fill="rgb(89,89,89)" stroke="none">The Adventures of Cookie &amp; Cream</tspan></tspan></tspan></text>
 <text class="TextShape" transform="rotate(-69.9 11102 13373)"><tspan class="TextParagraph" font-family="Liberation Sans Narrow, sans-serif" font-size="423px" font-weight="400"><tspan class="TextPosition" x="11102" y="13373"><tspan fill="rgb(89,89,89)" stroke="none">Armored Core 2: Another Age</tspan></tspan></tspan></text>
 <text class="TextShape" transform="rotate(-69.9 12684 11089)"><tspan class="TextParagraph" font-family="Liberation Sans Narrow, sans-serif" font-size="423px" font-weight="400"><tspan class="TextPosition" x="12684" y="11089"><tspan fill="rgb(89,89,89)" stroke="none">King&apos;s Field 4</tspan></tspan></tspan></text>
 <text class="TextShape" transform="rotate(-69.9 13324 11387)"><tspan class="TextParagraph" font-family="Liberation Sans Narrow, sans-serif" font-size="423px" font-weight="400"><tspan class="TextPosition" x="13324" y="11387"><tspan fill="rgb(89,89,89)" stroke="none">Armored Core 3</tspan></tspan></tspan></text>
 <text class="TextShape" transform="rotate(-69.9 14002 11586)"><tspan class="TextParagraph" font-family="Liberation Sans Narrow, sans-serif" font-size="423px" font-weight="400"><tspan class="TextPosition" x="14002" y="11586"><tspan fill="rgb(89,89,89)" stroke="none">Forever Kingdom</tspan></tspan></tspan></text>
 <text class="TextShape" transform="rotate(-69.9 14861 11288)"><tspan class="TextParagraph" font-family="Liberation Sans Narrow, sans-serif" font-size="423px" font-weight="400"><tspan class="TextPosition" x="14861" y="11288"><tspan fill="rgb(89,89,89)" stroke="none">Lost Kingdoms</tspan></tspan></tspan></text>
 <text class="TextShape" transform="rotate(-69.9 14517 14292)"><tspan class="TextParagraph" font-family="Liberation Sans Narrow, sans-serif" font-size="423px" font-weight="400"><tspan class="TextPosition" x="14517" y="14292"><tspan fill="rgb(89,89,89)" stroke="none">Murakumo: Renegade Mech Pursuit</tspan></tspan></tspan></text>
 <text class="TextShape" transform="rotate(-69.9 15927 12479)"><tspan class="TextParagraph" font-family="Liberation Sans Narrow, sans-serif" font-size="423px" font-weight="400"><tspan class="TextPosition" x="15927" y="12479"><tspan fill="rgb(89,89,89)" stroke="none">Otogi: Myth of Demons</tspan></tspan></tspan></text>
 <text class="TextShape" transform="rotate(-69.9 17003 11586)"><tspan class="TextParagraph" font-family="Liberation Sans Narrow, sans-serif" font-size="423px" font-weight="400"><tspan class="TextPosition" x="17003" y="11586"><tspan fill="rgb(89,89,89)" stroke="none">Lost Kingdoms II</tspan></tspan></tspan></text>
 <text class="TextShape" transform="rotate(-69.9 17273 12902)"><tspan class="TextParagraph" font-family="Liberation Sans Narrow, sans-serif" font-size="423px" font-weight="400"><tspan class="TextPosition" x="17273" y="12902"><tspan fill="rgb(89,89,89)" stroke="none">Otogi 2: immortal Warriors</tspan></tspan></tspan></text>
 <text class="TextShape" transform="rotate(-69.9 18223 12356)"><tspan class="TextParagraph" font-family="Liberation Sans Narrow, sans-serif" font-size="423px" font-weight="400"><tspan class="TextPosition" x="18223" y="12356"><tspan fill="rgb(89,89,89)" stroke="none">Shadow Tower: Abyss</tspan></tspan></tspan></text>
 <text class="TextShape" transform="rotate(-69.9 18802 12827)"><tspan class="TextParagraph" font-family="Liberation Sans Narrow, sans-serif" font-size="423px" font-weight="400"><tspan class="TextPosition" x="18802" y="12827"><tspan fill="rgb(89,89,89)" stroke="none">Silent Line: Armored Core</tspan></tspan></tspan></text>
 <text class="TextShape" transform="rotate(-69.9 20093 11338)"><tspan class="TextParagraph" font-family="Liberation Sans Narrow, sans-serif" font-size="423px" font-weight="400"><tspan class="TextPosition" x="20093" y="11338"><tspan fill="rgb(89,89,89)" stroke="none">Thousand Land</tspan></tspan></tspan></text>
 <text class="TextShape" transform="rotate(-69.9 20274 12902)"><tspan class="TextParagraph" font-family="Liberation Sans Narrow, sans-serif" font-size="423px" font-weight="400"><tspan class="TextPosition" x="20274" y="12902"><tspan fill="rgb(89,89,89)" stroke="none">Tenchu: Wrath of Heaven </tspan></tspan></tspan></text>
 <text class="TextShape" transform="rotate(-69.9 19975 15781)"><tspan class="TextParagraph" font-family="Liberation Sans Narrow, sans-serif" font-size="423px" font-weight="400"><tspan class="TextPosition" x="19975" y="15781"><tspan fill="rgb(89,89,89)" stroke="none">Armored Core: Formula Front - Extreme Battle</tspan></tspan></tspan></text>
 <text class="TextShape" transform="rotate(-69.9 22019 12231)"><tspan class="TextParagraph" font-family="Liberation Sans Narrow, sans-serif" font-size="423px" font-weight="400"><tspan class="TextPosition" x="22019" y="12231"><tspan fill="rgb(89,89,89)" stroke="none">Armored Core: Nexus</tspan></tspan></tspan></text>
 <text class="TextShape" transform="rotate(-69.9 22425 13175)"><tspan class="TextParagraph" font-family="Liberation Sans Narrow, sans-serif" font-size="423px" font-weight="400"><tspan class="TextPosition" x="22425" y="13175"><tspan fill="rgb(89,89,89)" stroke="none">Armored Core: Nine Breaker</tspan></tspan></tspan></text>
 <text class="TextShape" transform="rotate(-69.9 23600 12007)"><tspan class="TextParagraph" font-family="Liberation Sans Narrow, sans-serif" font-size="423px" font-weight="400"><tspan class="TextPosition" x="23600" y="12007"><tspan fill="rgb(89,89,89)" stroke="none">Echo Night: Beyond</tspan></tspan></tspan></text>
 <text class="TextShape" transform="rotate(-69.9 25128 9873)"><tspan class="TextParagraph" font-family="Liberation Sans Narrow, sans-serif" font-size="423px" font-weight="400"><tspan class="TextPosition" x="25128" y="9873"><tspan fill="rgb(89,89,89)" stroke="none">Kuon</tspan></tspan></tspan></text>
 <text class="TextShape" transform="rotate(-69.9 25219 11686)"><tspan class="TextParagraph" font-family="Liberation Sans Narrow, sans-serif" font-size="423px" font-weight="400"><tspan class="TextPosition" x="25219" y="11686"><tspan fill="rgb(89,89,89)" stroke="none">Metal Wolf Chaos</tspan></tspan></tspan></text>
 <text class="TextShape" transform="rotate(-69.9 25660 12530)"><tspan class="TextParagraph" font-family="Liberation Sans Narrow, sans-serif" font-size="423px" font-weight="400"><tspan class="TextPosition" x="25660" y="12530"><tspan fill="rgb(89,89,89)" stroke="none">Tenchu: Fatal Shadows</tspan></tspan></tspan></text>
 <text class="TextShape" transform="rotate(-69.9 26747 11611)"><tspan class="TextParagraph" font-family="Liberation Sans Narrow, sans-serif" font-size="423px" font-weight="400"><tspan class="TextPosition" x="26747" y="11611"><tspan fill="rgb(89,89,89)" stroke="none">Adventure Player</tspan></tspan></tspan></text>
 <text class="TextShape" transform="rotate(-69.9 27008 12952)"><tspan class="TextParagraph" font-family="Liberation Sans Narrow, sans-serif" font-size="423px" font-weight="400"><tspan class="TextPosition" x="27008" y="12952"><tspan fill="rgb(89,89,89)" stroke="none">Armored Core: Last Raven</tspan></tspan></tspan></text>
 <text class="TextShape" transform="rotate(-69.9 27504 13647)"><tspan class="TextParagraph" font-family="Liberation Sans Narrow, sans-serif" font-size="423px" font-weight="400"><tspan class="TextPosition" x="27504" y="13647"><tspan fill="rgb(89,89,89)" stroke="none">Tenchu: Time of the Assassins</tspan></tspan></tspan></text>
 <text class="TextShape" transform="rotate(-69.9 28790 12181)"><tspan class="TextParagraph" font-family="Liberation Sans Narrow, sans-serif" font-size="423px" font-weight="400"><tspan class="TextPosition" x="28790" y="12181"><tspan fill="rgb(89,89,89)" stroke="none">Yoshitsune Eiyuuden</tspan></tspan></tspan></text>
 <text class="TextShape" transform="rotate(-69.9 29827 11387)"><tspan class="TextParagraph" font-family="Liberation Sans Narrow, sans-serif" font-size="423px" font-weight="400"><tspan class="TextPosition" x="29827" y="11387"><tspan fill="rgb(89,89,89)" stroke="none">Armored Core 4</tspan></tspan></tspan></text>
 <text class="TextShape" transform="rotate(-69.9 29646 13944)"><tspan class="TextParagraph" font-family="Liberation Sans Narrow, sans-serif" font-size="423px" font-weight="400"><tspan class="TextPosition" x="29646" y="13944"><tspan fill="rgb(89,89,89)" stroke="none">Armored Core: Machine Side Box</tspan></tspan></tspan></text>
 <text class="TextShape" transform="rotate(-69.9 31274 11536)"><tspan class="TextParagraph" font-family="Liberation Sans Narrow, sans-serif" font-size="423px" font-weight="400"><tspan class="TextPosition" x="31274" y="11536"><tspan fill="rgb(89,89,89)" stroke="none">Enchanted Arms</tspan></tspan></tspan></text>
 <text class="TextShape" transform="rotate(-69.9 31626 12628)"><tspan class="TextParagraph" font-family="Liberation Sans Narrow, sans-serif" font-size="423px" font-weight="400"><tspan class="TextPosition" x="31626" y="12628"><tspan fill="rgb(89,89,89)" stroke="none">King&apos;s Field: Additional I</tspan></tspan></tspan></text>
 <text class="TextShape" transform="rotate(-69.9 32340 12727)"><tspan class="TextParagraph" font-family="Liberation Sans Narrow, sans-serif" font-size="423px" font-weight="400"><tspan class="TextPosition" x="32340" y="12727"><tspan fill="rgb(89,89,89)" stroke="none">King&apos;s Field: Additional II</tspan></tspan></tspan></text>
 <text class="TextShape" transform="rotate(-69.9 33904 10494)"><tspan class="TextParagraph" font-family="Liberation Sans Narrow, sans-serif" font-size="423px" font-weight="400"><tspan class="TextPosition" x="33904" y="10494"><tspan fill="rgb(89,89,89)" stroke="none">Tenchu Z</tspan></tspan></tspan></text>
 <text class="TextShape" transform="rotate(-69.9 34066 12107)"><tspan class="TextParagraph" font-family="Liberation Sans Narrow, sans-serif" font-size="423px" font-weight="400"><tspan class="TextPosition" x="34066" y="12107"><tspan fill="rgb(89,89,89)" stroke="none">Tenchu: Dark Secret</tspan></tspan></tspan></text>
 <text class="TextShape" transform="rotate(-69.9 35043 11487)"><tspan class="TextParagraph" font-family="Liberation Sans Narrow, sans-serif" font-size="423px" font-weight="400"><tspan class="TextPosition" x="35043" y="11487"><tspan fill="rgb(89,89,89)" stroke="none">Cookie &amp; Cream</tspan></tspan></tspan></text>
 <text class="TextShape" transform="rotate(-69.9 36046 10792)"><tspan class="TextParagraph" font-family="Liberation Sans Narrow, sans-serif" font-size="423px" font-weight="400"><tspan class="TextPosition" x="36046" y="10792"><tspan fill="rgb(89,89,89)" stroke="none">Iraroji VOW</tspan></tspan></tspan></text>
 <text class="TextShape" transform="rotate(-69.9 36009 12952)"><tspan class="TextParagraph" font-family="Liberation Sans Narrow, sans-serif" font-size="423px" font-weight="400"><tspan class="TextPosition" x="36009" y="12952"><tspan fill="rgb(89,89,89)" stroke="none">Armored Core: For Answer</tspan></tspan></tspan></text>
 <text class="TextShape" transform="rotate(-69.9 36877 12628)"><tspan class="TextParagraph" font-family="Liberation Sans Narrow, sans-serif" font-size="423px" font-weight="400"><tspan class="TextPosition" x="36877" y="12628"><tspan fill="rgb(89,89,89)" stroke="none">Shadow Assault Tenchu</tspan></tspan></tspan></text>
 <text class="TextShape" transform="rotate(-69.9 37781 12207)"><tspan class="TextParagraph" font-family="Liberation Sans Narrow, sans-serif" font-size="423px" font-weight="400"><tspan class="TextPosition" x="37781" y="12207"><tspan fill="rgb(89,89,89)" stroke="none">3D Dot Game Heroes</tspan></tspan></tspan></text>
 <text class="TextShape" transform="rotate(-69.9 38857 11312)"><tspan class="TextParagraph" font-family="Liberation Sans Narrow, sans-serif" font-size="423px" font-weight="400"><tspan class="TextPosition" x="38857" y="11312"><tspan fill="rgb(89,89,89)" stroke="none">Demon&apos;s Souls</tspan></tspan></tspan></text>
 <text class="TextShape" transform="rotate(-69.9 38070 15533)"><tspan class="TextParagraph" font-family="Liberation Sans Narrow, sans-serif" font-size="423px" font-weight="400"><tspan class="TextPosition" x="38070" y="15533"><tspan fill="rgb(89,89,89)" stroke="none">Fuuun Shinsengumi Bakumatsuden Portable</tspan></tspan></tspan></text>
 <text class="TextShape" transform="rotate(-69.9 39967 12380)"><tspan class="TextParagraph" font-family="Liberation Sans Narrow, sans-serif" font-size="423px" font-weight="400"><tspan class="TextPosition" x="39967" y="12380"><tspan fill="rgb(89,89,89)" stroke="none">Inugamike no Ichizoku</tspan></tspan></tspan></text>
 <text class="TextShape" transform="rotate(-69.9 40438 13149)"><tspan class="TextParagraph" font-family="Liberation Sans Narrow, sans-serif" font-size="423px" font-weight="400"><tspan class="TextPosition" x="40438" y="13149"><tspan fill="rgb(89,89,89)" stroke="none">Tenchu: Shadow Assassins</tspan></tspan></tspan></text>
 <text class="TextShape" transform="rotate(-69.9 41775 11536)"><tspan class="TextParagraph" font-family="Liberation Sans Narrow, sans-serif" font-size="423px" font-weight="400"><tspan class="TextPosition" x="41775" y="11536"><tspan fill="rgb(89,89,89)" stroke="none">Yatsu Hakamura</tspan></tspan></tspan></text>
 <text class="TextShape" transform="rotate(-69.9 42635 11238)"><tspan class="TextParagraph" font-family="Liberation Sans Narrow, sans-serif" font-size="423px" font-weight="400"><tspan class="TextPosition" x="42635" y="11238"><tspan fill="rgb(89,89,89)" stroke="none">NINJA BLADE</tspan></tspan></tspan></text>
 <text class="TextShape" transform="rotate(-69.9 42507 13647)"><tspan class="TextParagraph" font-family="Liberation Sans Narrow, sans-serif" font-size="423px" font-weight="400"><tspan class="TextPosition" x="42507" y="13647"><tspan fill="rgb(89,89,89)" stroke="none">Onore no shinzuru michi wo ike</tspan></tspan></tspan></text>
 <text class="TextShape" transform="rotate(-69.9 44325 10717)"><tspan class="TextParagraph" font-family="Liberation Sans Narrow, sans-serif" font-size="423px" font-weight="400"><tspan class="TextPosition" x="44325" y="10717"><tspan fill="rgb(89,89,89)" stroke="none">Dark Souls</tspan></tspan></tspan></text>
 <text class="TextShape" transform="rotate(-69.9 44812 11438)"><tspan class="TextParagraph" font-family="Liberation Sans Narrow, sans-serif" font-size="423px" font-weight="400"><tspan class="TextPosition" x="44812" y="11438"><tspan fill="rgb(89,89,89)" stroke="none">Armored Core V</tspan></tspan></tspan></text>
 <text class="TextShape" transform="rotate(-69.9 44641 13968)"><tspan class="TextParagraph" font-family="Liberation Sans Narrow, sans-serif" font-size="423px" font-weight="400"><tspan class="TextPosition" x="44641" y="13968"><tspan fill="rgb(89,89,89)" stroke="none">Dark Souls: Artorias of the Abyss</tspan></tspan></tspan></text>
 <text class="TextShape" transform="rotate(-69.9 45625 13323)"><tspan class="TextParagraph" font-family="Liberation Sans Narrow, sans-serif" font-size="423px" font-weight="400"><tspan class="TextPosition" x="45625" y="13323"><tspan fill="rgb(89,89,89)" stroke="none">Steel Battalion: Heavy Armor</tspan></tspan></tspan></text>
 <text class="TextShape" transform="rotate(-69.9 46493 13002)"><tspan class="TextParagraph" font-family="Liberation Sans Narrow, sans-serif" font-size="423px" font-weight="400"><tspan class="TextPosition" x="46493" y="13002"><tspan fill="rgb(89,89,89)" stroke="none">Armored Core: Verdict Day</tspan></tspan></tspan></text>
 <text class="TextShape" transform="rotate(-69.9 47786 11511)"><tspan class="TextParagraph" font-family="Liberation Sans Narrow, sans-serif" font-size="423px" font-weight="400"><tspan class="TextPosition" x="47786" y="11511"><tspan fill="rgb(89,89,89)" stroke="none">DARK SOULS II</tspan></tspan></tspan></text>
 <text class="TextShape" transform="rotate(-69.9 48817 10742)"><tspan class="TextParagraph" font-family="Liberation Sans Narrow, sans-serif" font-size="423px" font-weight="400"><tspan class="TextPosition" x="48817" y="10742"><tspan fill="rgb(89,89,89)" stroke="none">Bloodborne</tspan></tspan></tspan></text>
 <text class="TextShape" transform="rotate(-69.9 48183 14540)"><tspan class="TextParagraph" font-family="Liberation Sans Narrow, sans-serif" font-size="423px" font-weight="400"><tspan class="TextPosition" x="48183" y="14540"><tspan fill="rgb(89,89,89)" stroke="none">Dark Souls II: Scholar of the First Sin</tspan></tspan></tspan></text>
 <text class="TextShape" transform="rotate(-69.9 50001 11611)"><tspan class="TextParagraph" font-family="Liberation Sans Narrow, sans-serif" font-size="423px" font-weight="400"><tspan class="TextPosition" x="50001" y="11611"><tspan fill="rgb(89,89,89)" stroke="none">DARK SOULS III</tspan></tspan></tspan></text>
 <text class="TextShape" transform="rotate(-69.9 50370 12654)"><tspan class="TextParagraph" font-family="Liberation Sans Narrow, sans-serif" font-size="423px" font-weight="400"><tspan class="TextPosition" x="50370" y="12654"><tspan fill="rgb(89,89,89)" stroke="none">Dark Souls: Remastered</tspan></tspan></tspan></text>
 <text class="TextShape" transform="rotate(-69.9 51943 10394)"><tspan class="TextParagraph" font-family="Liberation Sans Narrow, sans-serif" font-size="423px" font-weight="400"><tspan class="TextPosition" x="51943" y="10394"><tspan fill="rgb(89,89,89)" stroke="none">Deracine</tspan></tspan></tspan></text>
 <text class="TextShape" transform="rotate(-69.9 51716 13075)"><tspan class="TextParagraph" font-family="Liberation Sans Narrow, sans-serif" font-size="423px" font-weight="400"><tspan class="TextPosition" x="51716" y="13075"><tspan fill="rgb(89,89,89)" stroke="none">Sekiro: Shadows Die Twice</tspan></tspan></tspan></text>
 <text class="TextShape"><tspan class="TextParagraph" font-family="Calibri, sans-serif" font-size="422px" font-weight="400"><tspan class="TextPosition" x="1348" y="8876"><tspan fill="rgb(89,89,89)" stroke="none">0</tspan></tspan></tspan></text>
 <text class="TextShape"><tspan class="TextParagraph" font-family="Calibri, sans-serif" font-size="422px" font-weight="400"><tspan class="TextPosition" x="1348" y="7241"><tspan fill="rgb(89,89,89)" stroke="none">5</tspan></tspan></tspan></text>
 <text class="TextShape"><tspan class="TextParagraph" font-family="Calibri, sans-serif" font-size="422px" font-weight="400"><tspan class="TextPosition" x="1137" y="5607"><tspan fill="rgb(89,89,89)" stroke="none">10</tspan></tspan></tspan></text>
 <text class="TextShape"><tspan class="TextParagraph" font-family="Calibri, sans-serif" font-size="422px" font-weight="400"><tspan class="TextPosition" x="1137" y="3972"><tspan fill="rgb(89,89,89)" stroke="none">15</tspan></tspan></tspan></text>
 <text class="TextShape"><tspan class="TextParagraph" font-family="Calibri, sans-serif" font-size="422px" font-weight="400"><tspan class="TextPosition" x="1137" y="2338"><tspan fill="rgb(89,89,89)" stroke="none">20</tspan></tspan></tspan></text>
 <text class="TextShape"><tspan class="TextParagraph" font-family="Calibri, sans-serif" font-size="422px" font-weight="400"><tspan class="TextPosition" x="1137" y="703"><tspan fill="rgb(89,89,89)" stroke="none">25</tspan></tspan></tspan></text>
 <path fill="rgb(165,165,165)" stroke="none" d="M 27692,3272 L 27565,3272 27565,3018 27819,3018 27819,3272 27692,3272 Z"/>
 <path fill="rgb(255,192,0)" stroke="none" d="M 21292,3272 L 21166,3272 21166,3018 21419,3018 21419,3272 21292,3272 Z"/>
 <text class="TextShape"><tspan class="TextParagraph" font-family="Calibri, sans-serif" font-size="422px" font-weight="400"><tspan class="TextPosition" x="21519" y="3251"><tspan fill="rgb(89,89,89)" stroke="none">headquarters_outside_japan</tspan></tspan></tspan></text>
 <text class="TextShape"><tspan class="TextParagraph" font-family="Calibri, sans-serif" font-size="422px" font-weight="400"><tspan class="TextPosition" x="27919" y="3251"><tspan fill="rgb(89,89,89)" stroke="none">headquarters_in_japan</tspan></tspan></tspan></text>
</svg>