<?xml version="1.0" encoding="UTF-8"?>
<!DOCTYPE svg PUBLIC "-//W3C//DTD SVG 1.1//EN" "http://www.w3.org/Graphics/SVG/1.1/DTD/svg11.dtd">
<svg width="280mm" height="143mm" viewBox="0 0 28000 14300" version="1.1" xmlns="http://www.w3.org/2000/svg" xmlns:xlink="http://www.w3.org/1999/xlink" stroke-width="28.222" stroke-linejoin="round" xml:space="preserve">
 <path fill="rgb(255,255,255)" stroke="none" d="M 14000,14265 L 0,14265 0,0 27999,0 27999,14265 14000,14265 Z"/>
 <path fill="none" stroke="rgb(179,179,179)" stroke-linejoin="round" d="M 13515,9723 L 1616,9723 1616,2652 25414,2652 25414,9723 13515,9723 Z"/>
 <path fill="none" stroke="rgb(179,179,179)" stroke-linejoin="round" d="M 25414,9722 L 1616,9722"/>
 <path fill="none" stroke="rgb(179,179,179)" stroke-linejoin="round" d="M 25414,8936 L 1616,8936"/>
 <path fill="none" stroke="rgb(179,179,179)" stroke-linejoin="round" d="M 25414,8150 L 1616,8150"/>
 <path fill="none" stroke="rgb(179,179,179)" stroke-linejoin="round" d="M 25414,7364 L 1616,7364"/>
 <path fill="none" stroke="rgb(179,179,179)" stroke-linejoin="round" d="M 25414,6579 L 1616,6579"/>
 <path fill="none" stroke="rgb(179,179,179)" stroke-linejoin="round" d="M 25414,5794 L 1616,5794"/>
 <path fill="none" stroke="rgb(179,179,179)" stroke-linejoin="round" d="M 25414,5008 L 1616,5008"/>
 <path fill="none" stroke="rgb(179,179,179)" stroke-linejoin="round" d="M 25414,4222 L 1616,4222"/>
 <path fill="none" stroke="rgb(179,179,179)" stroke-linejoin="round" d="M 25414,3436 L 1616,3436"/>
 <path fill="none" stroke="rgb(179,179,179)" stroke-linejoin="round" d="M 25414,2651 L 1616,2651"/>
 <path fill="none" stroke="rgb(179,179,179)" stroke-linejoin="round" d="M 1616,9872 L 1616,9722"/>
 <path fill="none" stroke="rgb(179,179,179)" stroke-linejoin="round" d="M 1616,9872 L 1616,9722"/>
 <path fill="none" stroke="rgb(179,179,179)" stroke-linejoin="round" d="M 2567,9872 L 2567,9722"/>
 <path fill="none" stroke="rgb(179,179,179)" stroke-linejoin="round" d="M 2567,9872 L 2567,9722"/>
 <path fill="none" stroke="rgb(179,179,179)" stroke-linejoin="round" d="M 3519,9872 L 3519,9722"/>
 <path fill="none" stroke="rgb(179,179,179)" stroke-linejoin="round" d="M 3519,9872 L 3519,9722"/>
 <path fill="none" stroke="rgb(179,179,179)" stroke-linejoin="round" d="M 4471,9872 L 4471,9722"/>
 <path fill="none" stroke="rgb(179,179,179)" stroke-linejoin="round" d="M 4471,9872 L 4471,9722"/>
 <path fill="none" stroke="rgb(179,179,179)" stroke-linejoin="round" d="M 5423,9872 L 5423,9722"/>
 <path fill="none" stroke="rgb(179,179,179)" stroke-linejoin="round" d="M 5423,9872 L 5423,9722"/>
 <path fill="none" stroke="rgb(179,179,179)" stroke-linejoin="round" d="M 6375,9872 L 6375,9722"/>
 <path fill="none" stroke="rgb(179,179,179)" stroke-linejoin="round" d="M 6375,9872 L 6375,9722"/>
 <path fill="none" stroke="rgb(179,179,179)" stroke-linejoin="round" d="M 7327,9872 L 7327,9722"/>
 <path fill="none" stroke="rgb(179,179,179)" stroke-linejoin="round" d="M 7327,9872 L 7327,9722"/>
 <path fill="none" stroke="rgb(179,179,179)" stroke-linejoin="round" d="M 8279,9872 L 8279,9722"/>
 <path fill="none" stroke="rgb(179,179,179)" stroke-linejoin="round" d="M 8279,9872 L 8279,9722"/>
 <path fill="none" stroke="rgb(179,179,179)" stroke-linejoin="round" d="M 9231,9872 L 9231,9722"/>
 <path fill="none" stroke="rgb(179,179,179)" stroke-linejoin="round" d="M 9231,9872 L 9231,9722"/>
 <path fill="none" stroke="rgb(179,179,179)" stroke-linejoin="round" d="M 10183,9872 L 10183,9722"/>
 <path fill="none" stroke="rgb(179,179,179)" stroke-linejoin="round" d="M 10183,9872 L 10183,9722"/>
 <path fill="none" stroke="rgb(179,179,179)" stroke-linejoin="round" d="M 11135,9872 L 11135,9722"/>
 <path fill="none" stroke="rgb(179,179,179)" stroke-linejoin="round" d="M 11135,9872 L 11135,9722"/>
 <path fill="none" stroke="rgb(179,179,179)" stroke-linejoin="round" d="M 12087,9872 L 12087,9722"/>
 <path fill="none" stroke="rgb(179,179,179)" stroke-linejoin="round" d="M 12087,9872 L 12087,9722"/>
 <path fill="none" stroke="rgb(179,179,179)" stroke-linejoin="round" d="M 13039,9872 L 13039,9722"/>
 <path fill="none" stroke="rgb(179,179,179)" stroke-linejoin="round" d="M 13039,9872 L 13039,9722"/>
 <path fill="none" stroke="rgb(179,179,179)" stroke-linejoin="round" d="M 13991,9872 L 13991,9722"/>
 <path fill="none" stroke="rgb(179,179,179)" stroke-linejoin="round" d="M 13991,9872 L 13991,9722"/>
 <path fill="none" stroke="rgb(179,179,179)" stroke-linejoin="round" d="M 14942,9872 L 14942,9722"/>
 <path fill="none" stroke="rgb(179,179,179)" stroke-linejoin="round" d="M 14942,9872 L 14942,9722"/>
 <path fill="none" stroke="rgb(179,179,179)" stroke-linejoin="round" d="M 15894,9872 L 15894,9722"/>
 <path fill="none" stroke="rgb(179,179,179)" stroke-linejoin="round" d="M 15894,9872 L 15894,9722"/>
 <path fill="none" stroke="rgb(179,179,179)" stroke-linejoin="round" d="M 16846,9872 L 16846,9722"/>
 <path fill="none" stroke="rgb(179,179,179)" stroke-linejoin="round" d="M 16846,9872 L 16846,9722"/>
 <path fill="none" stroke="rgb(179,179,179)" stroke-linejoin="round" d="M 17798,9872 L 17798,9722"/>
 <path fill="none" stroke="rgb(179,179,179)" stroke-linejoin="round" d="M 17798,9872 L 17798,9722"/>
 <path fill="none" stroke="rgb(179,179,179)" stroke-linejoin="round" d="M 18750,9872 L 18750,9722"/>
 <path fill="none" stroke="rgb(179,179,179)" stroke-linejoin="round" d="M 18750,9872 L 18750,9722"/>
 <path fill="none" stroke="rgb(179,179,179)" stroke-linejoin="round" d="M 19702,9872 L 19702,9722"/>
 <path fill="none" stroke="rgb(179,179,179)" stroke-linejoin="round" d="M 19702,9872 L 19702,9722"/>
 <path fill="none" stroke="rgb(179,179,179)" stroke-linejoin="round" d="M 20654,9872 L 20654,9722"/>
 <path fill="none" stroke="rgb(179,179,179)" stroke-linejoin="round" d="M 20654,9872 L 20654,9722"/>
 <path fill="none" stroke="rgb(179,179,179)" stroke-linejoin="round" d="M 21606,9872 L 21606,9722"/>
 <path fill="none" stroke="rgb(179,179,179)" stroke-linejoin="round" d="M 21606,9872 L 21606,9722"/>
 <path fill="none" stroke="rgb(179,179,179)" stroke-linejoin="round" d="M 22558,9872 L 22558,9722"/>
 <path fill="none" stroke="rgb(179,179,179)" stroke-linejoin="round" d="M 22558,9872 L 22558,9722"/>
 <path fill="none" stroke="rgb(179,179,179)" stroke-linejoin="round" d="M 23510,9872 L 23510,9722"/>
 <path fill="none" stroke="rgb(179,179,179)" stroke-linejoin="round" d="M 23510,9872 L 23510,9722"/>
 <path fill="none" stroke="rgb(179,179,179)" stroke-linejoin="round" d="M 24462,9872 L 24462,9722"/>
 <path fill="none" stroke="rgb(179,179,179)" stroke-linejoin="round" d="M 24462,9872 L 24462,9722"/>
 <path fill="none" stroke="rgb(179,179,179)" stroke-linejoin="round" d="M 25414,9872 L 25414,9722"/>
 <path fill="none" stroke="rgb(179,179,179)" stroke-linejoin="round" d="M 25414,9872 L 25414,9722"/>
 <path fill="none" stroke="rgb(179,179,179)" stroke-linejoin="round" d="M 1616,9722 L 25414,9722"/>
 <path fill="none" stroke="rgb(179,179,179)" stroke-linejoin="round" d="M 1466,9722 L 1616,9722"/>
 <path fill="none" stroke="rgb(179,179,179)" stroke-linejoin="round" d="M 1466,9722 L 1616,9722"/>
 <path fill="none" stroke="rgb(179,179,179)" stroke-linejoin="round" d="M 1466,8936 L 1616,8936"/>
 <path fill="none" stroke="rgb(179,179,179)" stroke-linejoin="round" d="M 1466,8936 L 1616,8936"/>
 <path fill="none" stroke="rgb(179,179,179)" stroke-linejoin="round" d="M 1466,8150 L 1616,8150"/>
 <path fill="none" stroke="rgb(179,179,179)" stroke-linejoin="round" d="M 1466,8150 L 1616,8150"/>
 <path fill="none" stroke="rgb(179,179,179)" stroke-linejoin="round" d="M 1466,7364 L 1616,7364"/>
 <path fill="none" stroke="rgb(179,179,179)" stroke-linejoin="round" d="M 1466,7364 L 1616,7364"/>
 <path fill="none" stroke="rgb(179,179,179)" stroke-linejoin="round" d="M 1466,6579 L 1616,6579"/>
 <path fill="none" stroke="rgb(179,179,179)" stroke-linejoin="round" d="M 1466,6579 L 1616,6579"/>
 <path fill="none" stroke="rgb(179,179,179)" stroke-linejoin="round" d="M 1466,5794 L 1616,5794"/>
 <path fill="none" stroke="rgb(179,179,179)" stroke-linejoin="round" d="M 1466,5794 L 1616,5794"/>
 <path fill="none" stroke="rgb(179,179,179)" stroke-linejoin="round" d="M 1466,5008 L 1616,5008"/>
 <path fill="none" stroke="rgb(179,179,179)" stroke-linejoin="round" d="M 1466,5008 L 1616,5008"/>
 <path fill="none" stroke="rgb(179,179,179)" stroke-linejoin="round" d="M 1466,4222 L 1616,4222"/>
 <path fill="none" stroke="rgb(179,179,179)" stroke-linejoin="round" d="M 1466,4222 L 1616,4222"/>
 <path fill="none" stroke="rgb(179,179,179)" stroke-linejoin="round" d="M 1466,3436 L 1616,3436"/>
 <path fill="none" stroke="rgb(179,179,179)" stroke-linejoin="round" d="M 1466,3436 L 1616,3436"/>
 <path fill="none" stroke="rgb(179,179,179)" stroke-linejoin="round" d="M 1466,2651 L 1616,2651"/>
 <path fill="none" stroke="rgb(179,179,179)" stroke-linejoin="round" d="M 1466,2651 L 1616,2651"/>
 <path fill="none" stroke="rgb(179,179,179)" stroke-linejoin="round" d="M 1616,9722 L 1616,2651"/>
 <path fill="rgb(0,69,134)" stroke="none" d="M 24700,9722 L 25176,9722 25176,9722 24700,9722 Z"/>
 <path fill="rgb(0,69,134)" stroke="none" d="M 23748,9722 L 24224,9722 24224,8936 23748,8936 23748,9722 Z"/>
 <path fill="rgb(0,69,134)" stroke="none" d="M 22796,9722 L 23272,9722 23272,9722 22796,9722 Z"/>
 <path fill="rgb(0,69,134)" stroke="none" d="M 21844,9722 L 22320,9722 22320,9250 21844,9250 21844,9722 Z"/>
 <path fill="rgb(0,69,134)" stroke="none" d="M 20892,9722 L 21368,9722 21368,9722 20892,9722 Z"/>
 <path fill="rgb(0,69,134)" stroke="none" d="M 19940,9722 L 20416,9722 20416,9564 19940,9564 19940,9722 Z"/>
 <path fill="rgb(0,69,134)" stroke="none" d="M 18988,9722 L 19464,9722 19464,8779 18988,8779 18988,9722 Z"/>
 <path fill="rgb(0,69,134)" stroke="none" d="M 18036,9722 L 18512,9722 18512,9407 18036,9407 18036,9722 Z"/>
 <path fill="rgb(0,69,134)" stroke="none" d="M 17084,9722 L 17560,9722 17560,9722 17084,9722 Z"/>
 <path fill="rgb(0,69,134)" stroke="none" d="M 16132,9722 L 16608,9722 16608,9564 16132,9564 16132,9722 Z"/>
 <path fill="rgb(0,69,134)" stroke="none" d="M 15180,9722 L 15656,9722 15656,8464 15180,8464 15180,9722 Z"/>
 <path fill="rgb(0,69,134)" stroke="none" d="M 14228,9722 L 14704,9722 14704,9722 14228,9722 Z"/>
 <path fill="rgb(0,69,134)" stroke="none" d="M 13277,9722 L 13753,9722 13753,9722 13277,9722 Z"/>
 <path fill="rgb(0,69,134)" stroke="none" d="M 12325,9722 L 12801,9722 12801,9250 12325,9250 12325,9722 Z"/>
 <path fill="rgb(0,69,134)" stroke="none" d="M 11373,9722 L 11849,9722 11849,9722 11373,9722 Z"/>
 <path fill="rgb(0,69,134)" stroke="none" d="M 10421,9722 L 10897,9722 10897,9564 10421,9564 10421,9722 Z"/>
 <path fill="rgb(0,69,134)" stroke="none" d="M 9469,9722 L 9945,9722 9945,9722 9469,9722 Z"/>
 <path fill="rgb(0,69,134)" stroke="none" d="M 8517,9722 L 8993,9722 8993,8779 8517,8779 8517,9722 Z"/>
 <path fill="rgb(0,69,134)" stroke="none" d="M 7565,9722 L 8041,9722 8041,9250 7565,9250 7565,9722 Z"/>
 <path fill="rgb(0,69,134)" stroke="none" d="M 6613,9722 L 7089,9722 7089,9250 6613,9250 6613,9722 Z"/>
 <path fill="rgb(0,69,134)" stroke="none" d="M 5661,9722 L 6137,9722 6137,9722 5661,9722 Z"/>
 <path fill="rgb(0,69,134)" stroke="none" d="M 4709,9722 L 5185,9722 5185,9722 4709,9722 Z"/>
 <path fill="rgb(0,69,134)" stroke="none" d="M 3757,9722 L 4233,9722 4233,9407 3757,9407 3757,9722 Z"/>
 <path fill="rgb(0,69,134)" stroke="none" d="M 2805,9722 L 3281,9722 3281,6108 2805,6108 2805,9722 Z"/>
 <path fill="rgb(0,69,134)" stroke="none" d="M 1853,9722 L 2329,9722 2329,9564 1853,9564 1853,9722 Z"/>
 <path fill="rgb(255,66,14)" stroke="none" d="M 24700,9722 L 25176,9722 25176,9564 24700,9564 24700,9722 Z"/>
 <path fill="rgb(255,66,14)" stroke="none" d="M 23748,8936 L 24224,8936 24224,8307 23748,8307 23748,8936 Z"/>
 <path fill="rgb(255,66,14)" stroke="none" d="M 22796,9722 L 23272,9722 23272,9407 22796,9407 22796,9722 Z"/>
 <path fill="rgb(255,66,14)" stroke="none" d="M 21844,9250 L 22320,9250 22320,8936 21844,8936 21844,9250 Z"/>
 <path fill="rgb(255,66,14)" stroke="none" d="M 20892,9722 L 21368,9722 21368,9564 20892,9564 20892,9722 Z"/>
 <path fill="rgb(255,66,14)" stroke="none" d="M 18988,8779 L 19464,8779 19464,4065 18988,4065 18988,8779 Z"/>
 <path fill="rgb(255,66,14)" stroke="none" d="M 18036,9407 L 18512,9407 18512,9250 18036,9250 18036,9407 Z"/>
 <path fill="rgb(255,66,14)" stroke="none" d="M 17084,9722 L 17560,9722 17560,9250 17084,9250 17084,9722 Z"/>
 <path fill="rgb(255,66,14)" stroke="none" d="M 15180,8464 L 15656,8464 15656,8307 15180,8307 15180,8464 Z"/>
 <path fill="rgb(255,66,14)" stroke="none" d="M 14228,9722 L 14704,9722 14704,9093 14228,9093 14228,9722 Z"/>
 <path fill="rgb(255,66,14)" stroke="none" d="M 13277,9722 L 13753,9722 13753,9564 13277,9564 13277,9722 Z"/>
 <path fill="rgb(255,66,14)" stroke="none" d="M 12325,9250 L 12801,9250 12801,8464 12325,8464 12325,9250 Z"/>
 <path fill="rgb(255,66,14)" stroke="none" d="M 11373,9722 L 11849,9722 11849,9564 11373,9564 11373,9722 Z"/>
 <path fill="rgb(255,66,14)" stroke="none" d="M 9469,9722 L 9945,9722 9945,7836 9469,7836 9469,9722 Z"/>
 <path fill="rgb(255,66,14)" stroke="none" d="M 7565,9250 L 8041,9250 8041,9093 7565,9093 7565,9250 Z"/>
 <path fill="rgb(255,66,14)" stroke="none" d="M 6613,9250 L 7089,9250 7089,8936 6613,8936 6613,9250 Z"/>
 <path fill="rgb(255,66,14)" stroke="none" d="M 5661,9722 L 6137,9722 6137,9407 5661,9407 5661,9722 Z"/>
 <path fill="rgb(255,66,14)" stroke="none" d="M 4709,9722 L 5185,9722 5185,9407 4709,9407 4709,9722 Z"/>
 <path fill="rgb(255,66,14)" stroke="none" d="M 2805,6108 L 3281,6108 3281,3593 2805,3593 2805,6108 Z"/>
 <text class="TextShape" transform="rotate(-70.9 867 13953)"><tspan class="TextParagraph" font-family="Liberation Sans, sans-serif" font-size="353px" font-weight="400"><tspan class="TextPosition" x="867" y="13953"><tspan fill="rgb(0,0,0)" stroke="none">Additional Development by</tspan></tspan></tspan></text>
 <text class="TextShape" transform="rotate(-70.9 2027 13353)"><tspan class="TextParagraph" font-family="Liberation Sans, sans-serif" font-size="353px" font-weight="400"><tspan class="TextPosition" x="2027" y="13353"><tspan fill="rgb(0,0,0)" stroke="none">Additional Graphics by</tspan></tspan></tspan></text>
 <text class="TextShape" transform="rotate(-70.9 3125 12927)"><tspan class="TextParagraph" font-family="Liberation Sans, sans-serif" font-size="353px" font-weight="400"><tspan class="TextPosition" x="3125" y="12927"><tspan fill="rgb(0,0,0)" stroke="none">Additional Music by</tspan></tspan></tspan></text>
 <text class="TextShape" transform="rotate(-70.9 4059 12977)"><tspan class="TextParagraph" font-family="Liberation Sans, sans-serif" font-size="353px" font-weight="400"><tspan class="TextPosition" x="4059" y="12977"><tspan fill="rgb(0,0,0)" stroke="none">Additional Sound by</tspan></tspan></tspan></text>
 <text class="TextShape" transform="rotate(-70.9 5477 11626)"><tspan class="TextParagraph" font-family="Liberation Sans, sans-serif" font-size="353px" font-weight="400"><tspan class="TextPosition" x="5477" y="11626"><tspan fill="rgb(0,0,0)" stroke="none">Casting by</tspan></tspan></tspan></text>
 <text class="TextShape" transform="rotate(-70.9 6153 12427)"><tspan class="TextParagraph" font-family="Liberation Sans, sans-serif" font-size="353px" font-weight="400"><tspan class="TextPosition" x="6153" y="12427"><tspan fill="rgb(0,0,0)" stroke="none">Contributions by</tspan></tspan></tspan></text>
 <text class="TextShape" transform="rotate(-70.9 7225 12077)"><tspan class="TextParagraph" font-family="Liberation Sans, sans-serif" font-size="353px" font-weight="400"><tspan class="TextPosition" x="7225" y="12077"><tspan fill="rgb(0,0,0)" stroke="none">Cutscenes by</tspan></tspan></tspan></text>
 <text class="TextShape" transform="rotate(-70.9 8187 12052)"><tspan class="TextParagraph" font-family="Liberation Sans, sans-serif" font-size="353px" font-weight="400"><tspan class="TextPosition" x="8187" y="12052"><tspan fill="rgb(0,0,0)" stroke="none">Developed by</tspan></tspan></tspan></text>
 <text class="TextShape" transform="rotate(-70.9 9129 12077)"><tspan class="TextParagraph" font-family="Liberation Sans, sans-serif" font-size="353px" font-weight="400"><tspan class="TextPosition" x="9129" y="12077"><tspan fill="rgb(0,0,0)" stroke="none">Distributed by</tspan></tspan></tspan></text>
 <text class="TextShape" transform="rotate(-70.9 10330 11351)"><tspan class="TextParagraph" font-family="Liberation Sans, sans-serif" font-size="353px" font-weight="400"><tspan class="TextPosition" x="10330" y="11351"><tspan fill="rgb(0,0,0)" stroke="none">Fonts by</tspan></tspan></tspan></text>
 <text class="TextShape" transform="rotate(-70.9 10886 12502)"><tspan class="TextParagraph" font-family="Liberation Sans, sans-serif" font-size="353px" font-weight="400"><tspan class="TextPosition" x="10886" y="12502"><tspan fill="rgb(0,0,0)" stroke="none">Game Engine by</tspan></tspan></tspan></text>
 <text class="TextShape" transform="rotate(-70.9 12046 11901)"><tspan class="TextParagraph" font-family="Liberation Sans, sans-serif" font-size="353px" font-weight="400"><tspan class="TextPosition" x="12046" y="11901"><tspan fill="rgb(0,0,0)" stroke="none">Localized by</tspan></tspan></tspan></text>
 <text class="TextShape" transform="rotate(-70.9 13109 11577)"><tspan class="TextParagraph" font-family="Liberation Sans, sans-serif" font-size="353px" font-weight="400"><tspan class="TextPosition" x="13109" y="11577"><tspan fill="rgb(0,0,0)" stroke="none">Manual by</tspan></tspan></tspan></text>
 <text class="TextShape" transform="rotate(-70.9 13864 12152)"><tspan class="TextParagraph" font-family="Liberation Sans, sans-serif" font-size="353px" font-weight="400"><tspan class="TextPosition" x="13864" y="12152"><tspan fill="rgb(0,0,0)" stroke="none">Middleware by</tspan></tspan></tspan></text>
 <text class="TextShape" transform="rotate(-70.9 14616 12729)"><tspan class="TextParagraph" font-family="Liberation Sans, sans-serif" font-size="353px" font-weight="400"><tspan class="TextPosition" x="14616" y="12729"><tspan fill="rgb(0,0,0)" stroke="none">Motion Capture by</tspan></tspan></tspan></text>
 <text class="TextShape" transform="rotate(-70.9 16026 11401)"><tspan class="TextParagraph" font-family="Liberation Sans, sans-serif" font-size="353px" font-weight="400"><tspan class="TextPosition" x="16026" y="11401"><tspan fill="rgb(0,0,0)" stroke="none">Music by</tspan></tspan></tspan></text>
 <text class="TextShape" transform="rotate(-70.9 16460 12903)"><tspan class="TextParagraph" font-family="Liberation Sans, sans-serif" font-size="353px" font-weight="400"><tspan class="TextPosition" x="16460" y="12903"><tspan fill="rgb(0,0,0)" stroke="none">Package Design by</tspan></tspan></tspan></text>
 <text class="TextShape" transform="rotate(-70.9 17904 11477)"><tspan class="TextParagraph" font-family="Liberation Sans, sans-serif" font-size="353px" font-weight="400"><tspan class="TextPosition" x="17904" y="11477"><tspan fill="rgb(0,0,0)" stroke="none">Ported by</tspan></tspan></tspan></text>
 <text class="TextShape" transform="rotate(-70.9 18692 11951)"><tspan class="TextParagraph" font-family="Liberation Sans, sans-serif" font-size="353px" font-weight="400"><tspan class="TextPosition" x="18692" y="11951"><tspan fill="rgb(0,0,0)" stroke="none">Published by</tspan></tspan></tspan></text>
 <text class="TextShape" transform="rotate(-70.9 19816 11451)"><tspan class="TextParagraph" font-family="Liberation Sans, sans-serif" font-size="353px" font-weight="400"><tspan class="TextPosition" x="19816" y="11451"><tspan fill="rgb(0,0,0)" stroke="none">Sound by</tspan></tspan></tspan></text>
 <text class="TextShape" transform="rotate(-70.9 20390 12553)"><tspan class="TextParagraph" font-family="Liberation Sans, sans-serif" font-size="353px" font-weight="400"><tspan class="TextPosition" x="20390" y="12553"><tspan fill="rgb(0,0,0)" stroke="none">Sound Engine by</tspan></tspan></tspan></text>
 <text class="TextShape" transform="rotate(-70.9 21668 11601)"><tspan class="TextParagraph" font-family="Liberation Sans, sans-serif" font-size="353px" font-weight="400"><tspan class="TextPosition" x="21668" y="11601"><tspan fill="rgb(0,0,0)" stroke="none">Testing by</tspan></tspan></tspan></text>
 <text class="TextShape" transform="rotate(-70.9 22138 13003)"><tspan class="TextParagraph" font-family="Liberation Sans, sans-serif" font-size="353px" font-weight="400"><tspan class="TextPosition" x="22138" y="13003"><tspan fill="rgb(0,0,0)" stroke="none">Voice Production by</tspan></tspan></tspan></text>
 <text class="TextShape" transform="rotate(-70.9 23124 12903)"><tspan class="TextParagraph" font-family="Liberation Sans, sans-serif" font-size="353px" font-weight="400"><tspan class="TextPosition" x="23124" y="12903"><tspan fill="rgb(0,0,0)" stroke="none">Voice Recording by</tspan></tspan></tspan></text>
 <text class="TextShape" transform="rotate(-70.9 24550 11527)"><tspan class="TextParagraph" font-family="Liberation Sans, sans-serif" font-size="353px" font-weight="400"><tspan class="TextPosition" x="24550" y="11527"><tspan fill="rgb(0,0,0)" stroke="none">Writing by</tspan></tspan></tspan></text>
 <text class="TextShape"><tspan class="TextParagraph" font-family="Liberation Sans, sans-serif" font-size="353px" font-weight="400"><tspan class="TextPosition" x="1181" y="9843"><tspan fill="rgb(0,0,0)" stroke="none">0</tspan></tspan></tspan></text>
 <text class="TextShape"><tspan class="TextParagraph" font-family="Liberation Sans, sans-serif" font-size="353px" font-weight="400"><tspan class="TextPosition" x="1181" y="9057"><tspan fill="rgb(0,0,0)" stroke="none">5</tspan></tspan></tspan></text>
 <text class="TextShape"><tspan class="TextParagraph" font-family="Liberation Sans, sans-serif" font-size="353px" font-weight="400"><tspan class="TextPosition" x="996" y="8271"><tspan fill="rgb(0,0,0)" stroke="none">10</tspan></tspan></tspan></text>
 <text class="TextShape"><tspan class="TextParagraph" font-family="Liberation Sans, sans-serif" font-size="353px" font-weight="400"><tspan class="TextPosition" x="996" y="7485"><tspan fill="rgb(0,0,0)" stroke="none">15</tspan></tspan></tspan></text>
 <text class="TextShape"><tspan class="TextParagraph" font-family="Liberation Sans, sans-serif" font-size="353px" font-weight="400"><tspan class="TextPosition" x="996" y="6699"><tspan fill="rgb(0,0,0)" stroke="none">20</tspan></tspan></tspan></text>
 <text class="TextShape"><tspan class="TextParagraph" font-family="Liberation Sans, sans-serif" font-size="353px" font-weight="400"><tspan class="TextPosition" x="996" y="5914"><tspan fill="rgb(0,0,0)" stroke="none">25</tspan></tspan></tspan></text>
 <text class="TextShape"><tspan class="TextParagraph" font-family="Liberation Sans, sans-serif" font-size="353px" font-weight="400"><tspan class="TextPosition" x="996" y="5128"><tspan fill="rgb(0,0,0)" stroke="none">30</tspan></tspan></tspan></text>
 <text class="TextShape"><tspan class="TextParagraph" font-family="Liberation Sans, sans-serif" font-size="353px" font-weight="400"><tspan class="TextPosition" x="996" y="4342"><tspan fill="rgb(0,0,0)" stroke="none">35</tspan></tspan></tspan></text>
 <text class="TextShape"><tspan class="TextParagraph" font-family="Liberation Sans, sans-serif" font-size="353px" font-weight="400"><tspan class="TextPosition" x="996" y="3556"><tspan fill="rgb(0,0,0)" stroke="none">40</tspan></tspan></tspan></text>
 <text class="TextShape"><tspan class="TextParagraph" font-family="Liberation Sans, sans-serif" font-size="353px" font-weight="400"><tspan class="TextPosition" x="996" y="2771"><tspan fill="rgb(0,0,0)" stroke="none">45</tspan></tspan></tspan></text>
 <text class="TextShape"><tspan class="TextParagraph" font-family="Liberation Sans, sans-serif" font-size="459px" font-weight="400"><tspan class="TextPosition" x="9528" y="956"><tspan fill="rgb(0,0,0)" stroke="none">Companies involved in FromSoftware Games</tspan></tspan></tspan></text>
 <text class="TextShape"><tspan class="TextParagraph" font-family="Liberation Sans, sans-serif" font-size="388px" font-weight="400"><tspan class="TextPosition" x="9396" y="1971"><tspan fill="rgb(0,0,0)" stroke="none">Ratio comparison between Japan and Other locations</tspan></tspan></tspan></text>
 <path fill="rgb(0,69,134)" stroke="none" d="M 13749,4782 L 13644,4782 13644,4571 13855,4571 13855,4782 13749,4782 Z"/>
 <path fill="rgb(255,66,14)" stroke="none" d="M 11648,4782 L 11543,4782 11543,4571 11754,4571 11754,4782 11648,4782 Z"/>
 <text class="TextShape"><tspan class="TextParagraph" font-family="Liberation Sans, sans-serif" font-size="353px" font-weight="400"><tspan class="TextPosition" x="11854" y="4796"><tspan fill="rgb(0,0,0)" stroke="none">Non-Jap</tspan></tspan></tspan></text>
 <text class="TextShape"><tspan class="TextParagraph" font-family="Liberation Sans, sans-serif" font-size="353px" font-weight="400"><tspan class="TextPosition" x="13955" y="4796"><tspan fill="rgb(0,0,0)" stroke="none">japan</tspan></tspan></tspan></text>
</svg>