<?xml version="1.0" encoding="UTF-8"?>
<!DOCTYPE svg PUBLIC "-//W3C//DTD SVG 1.1//EN" "http://www.w3.org/Graphics/SVG/1.1/DTD/svg11.dtd">
<svg width="280mm" height="143mm" viewBox="0 0 28000 14300" version="1.1" xmlns="http://www.w3.org/2000/svg" xmlns:xlink="http://www.w3.org/1999/xlink" stroke-width="28.222" stroke-linejoin="round" xml:space="preserve">
 <path fill="rgb(255,255,255)" stroke="none" d="M 14000,14265 L 0,14265 0,0 27999,0 27999,14265 14000,14265 Z"/>
 <path fill="none" stroke="rgb(179,179,179)" stroke-linejoin="round" d="M 14568,9721 L 1645,9721 1645,483 27492,483 27492,9721 14568,9721 Z"/>
 <path fill="none" stroke="rgb(179,179,179)" stroke-linejoin="round" d="M 27492,9720 L 1645,9720"/>
 <path fill="none" stroke="rgb(179,179,179)" stroke-linejoin="round" d="M 27492,8693 L 1645,8693"/>
 <path fill="none" stroke="rgb(179,179,179)" stroke-linejoin="round" d="M 27492,7666 L 1645,7666"/>
 <path fill="none" stroke="rgb(179,179,179)" stroke-linejoin="round" d="M 27492,6641 L 1645,6641"/>
 <path fill="none" stroke="rgb(179,179,179)" stroke-linejoin="round" d="M 27492,5614 L 1645,5614"/>
 <path fill="none" stroke="rgb(179,179,179)" stroke-linejoin="round" d="M 27492,4588 L 1645,4588"/>
 <path fill="none" stroke="rgb(179,179,179)" stroke-linejoin="round" d="M 27492,3561 L 1645,3561"/>
 <path fill="none" stroke="rgb(179,179,179)" stroke-linejoin="round" d="M 27492,2535 L 1645,2535"/>
 <path fill="none" stroke="rgb(179,179,179)" stroke-linejoin="round" d="M 27492,1508 L 1645,1508"/>
 <path fill="none" stroke="rgb(179,179,179)" stroke-linejoin="round" d="M 27492,482 L 1645,482"/>
 <path fill="none" stroke="rgb(179,179,179)" stroke-linejoin="round" d="M 1645,9870 L 1645,9720"/>
 <path fill="none" stroke="rgb(179,179,179)" stroke-linejoin="round" d="M 1645,9870 L 1645,9720"/>
 <path fill="none" stroke="rgb(179,179,179)" stroke-linejoin="round" d="M 2678,9870 L 2678,9720"/>
 <path fill="none" stroke="rgb(179,179,179)" stroke-linejoin="round" d="M 2678,9870 L 2678,9720"/>
 <path fill="none" stroke="rgb(179,179,179)" stroke-linejoin="round" d="M 3712,9870 L 3712,9720"/>
 <path fill="none" stroke="rgb(179,179,179)" stroke-linejoin="round" d="M 3712,9870 L 3712,9720"/>
 <path fill="none" stroke="rgb(179,179,179)" stroke-linejoin="round" d="M 4746,9870 L 4746,9720"/>
 <path fill="none" stroke="rgb(179,179,179)" stroke-linejoin="round" d="M 4746,9870 L 4746,9720"/>
 <path fill="none" stroke="rgb(179,179,179)" stroke-linejoin="round" d="M 5780,9870 L 5780,9720"/>
 <path fill="none" stroke="rgb(179,179,179)" stroke-linejoin="round" d="M 5780,9870 L 5780,9720"/>
 <path fill="none" stroke="rgb(179,179,179)" stroke-linejoin="round" d="M 6814,9870 L 6814,9720"/>
 <path fill="none" stroke="rgb(179,179,179)" stroke-linejoin="round" d="M 6814,9870 L 6814,9720"/>
 <path fill="none" stroke="rgb(179,179,179)" stroke-linejoin="round" d="M 7848,9870 L 7848,9720"/>
 <path fill="none" stroke="rgb(179,179,179)" stroke-linejoin="round" d="M 7848,9870 L 7848,9720"/>
 <path fill="none" stroke="rgb(179,179,179)" stroke-linejoin="round" d="M 8882,9870 L 8882,9720"/>
 <path fill="none" stroke="rgb(179,179,179)" stroke-linejoin="round" d="M 8882,9870 L 8882,9720"/>
 <path fill="none" stroke="rgb(179,179,179)" stroke-linejoin="round" d="M 9916,9870 L 9916,9720"/>
 <path fill="none" stroke="rgb(179,179,179)" stroke-linejoin="round" d="M 9916,9870 L 9916,9720"/>
 <path fill="none" stroke="rgb(179,179,179)" stroke-linejoin="round" d="M 10950,9870 L 10950,9720"/>
 <path fill="none" stroke="rgb(179,179,179)" stroke-linejoin="round" d="M 10950,9870 L 10950,9720"/>
 <path fill="none" stroke="rgb(179,179,179)" stroke-linejoin="round" d="M 11984,9870 L 11984,9720"/>
 <path fill="none" stroke="rgb(179,179,179)" stroke-linejoin="round" d="M 11984,9870 L 11984,9720"/>
 <path fill="none" stroke="rgb(179,179,179)" stroke-linejoin="round" d="M 13018,9870 L 13018,9720"/>
 <path fill="none" stroke="rgb(179,179,179)" stroke-linejoin="round" d="M 13018,9870 L 13018,9720"/>
 <path fill="none" stroke="rgb(179,179,179)" stroke-linejoin="round" d="M 14051,9870 L 14051,9720"/>
 <path fill="none" stroke="rgb(179,179,179)" stroke-linejoin="round" d="M 14051,9870 L 14051,9720"/>
 <path fill="none" stroke="rgb(179,179,179)" stroke-linejoin="round" d="M 15084,9870 L 15084,9720"/>
 <path fill="none" stroke="rgb(179,179,179)" stroke-linejoin="round" d="M 15084,9870 L 15084,9720"/>
 <path fill="none" stroke="rgb(179,179,179)" stroke-linejoin="round" d="M 16118,9870 L 16118,9720"/>
 <path fill="none" stroke="rgb(179,179,179)" stroke-linejoin="round" d="M 16118,9870 L 16118,9720"/>
 <path fill="none" stroke="rgb(179,179,179)" stroke-linejoin="round" d="M 17152,9870 L 17152,9720"/>
 <path fill="none" stroke="rgb(179,179,179)" stroke-linejoin="round" d="M 17152,9870 L 17152,9720"/>
 <path fill="none" stroke="rgb(179,179,179)" stroke-linejoin="round" d="M 18186,9870 L 18186,9720"/>
 <path fill="none" stroke="rgb(179,179,179)" stroke-linejoin="round" d="M 18186,9870 L 18186,9720"/>
 <path fill="none" stroke="rgb(179,179,179)" stroke-linejoin="round" d="M 19220,9870 L 19220,9720"/>
 <path fill="none" stroke="rgb(179,179,179)" stroke-linejoin="round" d="M 19220,9870 L 19220,9720"/>
 <path fill="none" stroke="rgb(179,179,179)" stroke-linejoin="round" d="M 20254,9870 L 20254,9720"/>
 <path fill="none" stroke="rgb(179,179,179)" stroke-linejoin="round" d="M 20254,9870 L 20254,9720"/>
 <path fill="none" stroke="rgb(179,179,179)" stroke-linejoin="round" d="M 21288,9870 L 21288,9720"/>
 <path fill="none" stroke="rgb(179,179,179)" stroke-linejoin="round" d="M 21288,9870 L 21288,9720"/>
 <path fill="none" stroke="rgb(179,179,179)" stroke-linejoin="round" d="M 22322,9870 L 22322,9720"/>
 <path fill="none" stroke="rgb(179,179,179)" stroke-linejoin="round" d="M 22322,9870 L 22322,9720"/>
 <path fill="none" stroke="rgb(179,179,179)" stroke-linejoin="round" d="M 23356,9870 L 23356,9720"/>
 <path fill="none" stroke="rgb(179,179,179)" stroke-linejoin="round" d="M 23356,9870 L 23356,9720"/>
 <path fill="none" stroke="rgb(179,179,179)" stroke-linejoin="round" d="M 24390,9870 L 24390,9720"/>
 <path fill="none" stroke="rgb(179,179,179)" stroke-linejoin="round" d="M 24390,9870 L 24390,9720"/>
 <path fill="none" stroke="rgb(179,179,179)" stroke-linejoin="round" d="M 25424,9870 L 25424,9720"/>
 <path fill="none" stroke="rgb(179,179,179)" stroke-linejoin="round" d="M 25424,9870 L 25424,9720"/>
 <path fill="none" stroke="rgb(179,179,179)" stroke-linejoin="round" d="M 26458,9870 L 26458,9720"/>
 <path fill="none" stroke="rgb(179,179,179)" stroke-linejoin="round" d="M 26458,9870 L 26458,9720"/>
 <path fill="none" stroke="rgb(179,179,179)" stroke-linejoin="round" d="M 27492,9870 L 27492,9720"/>
 <path fill="none" stroke="rgb(179,179,179)" stroke-linejoin="round" d="M 27492,9870 L 27492,9720"/>
 <path fill="none" stroke="rgb(179,179,179)" stroke-linejoin="round" d="M 1645,9720 L 27492,9720"/>
 <path fill="none" stroke="rgb(179,179,179)" stroke-linejoin="round" d="M 1495,9720 L 1645,9720"/>
 <path fill="none" stroke="rgb(179,179,179)" stroke-linejoin="round" d="M 1495,9720 L 1645,9720"/>
 <path fill="none" stroke="rgb(179,179,179)" stroke-linejoin="round" d="M 1495,8693 L 1645,8693"/>
 <path fill="none" stroke="rgb(179,179,179)" stroke-linejoin="round" d="M 1495,8693 L 1645,8693"/>
 <path fill="none" stroke="rgb(179,179,179)" stroke-linejoin="round" d="M 1495,7666 L 1645,7666"/>
 <path fill="none" stroke="rgb(179,179,179)" stroke-linejoin="round" d="M 1495,7666 L 1645,7666"/>
 <path fill="none" stroke="rgb(179,179,179)" stroke-linejoin="round" d="M 1495,6641 L 1645,6641"/>
 <path fill="none" stroke="rgb(179,179,179)" stroke-linejoin="round" d="M 1495,6641 L 1645,6641"/>
 <path fill="none" stroke="rgb(179,179,179)" stroke-linejoin="round" d="M 1495,5614 L 1645,5614"/>
 <path fill="none" stroke="rgb(179,179,179)" stroke-linejoin="round" d="M 1495,5614 L 1645,5614"/>
 <path fill="none" stroke="rgb(179,179,179)" stroke-linejoin="round" d="M 1495,4588 L 1645,4588"/>
 <path fill="none" stroke="rgb(179,179,179)" stroke-linejoin="round" d="M 1495,4588 L 1645,4588"/>
 <path fill="none" stroke="rgb(179,179,179)" stroke-linejoin="round" d="M 1495,3561 L 1645,3561"/>
 <path fill="none" stroke="rgb(179,179,179)" stroke-linejoin="round" d="M 1495,3561 L 1645,3561"/>
 <path fill="none" stroke="rgb(179,179,179)" stroke-linejoin="round" d="M 1495,2535 L 1645,2535"/>
 <path fill="none" stroke="rgb(179,179,179)" stroke-linejoin="round" d="M 1495,2535 L 1645,2535"/>
 <path fill="none" stroke="rgb(179,179,179)" stroke-linejoin="round" d="M 1495,1508 L 1645,1508"/>
 <path fill="none" stroke="rgb(179,179,179)" stroke-linejoin="round" d="M 1495,1508 L 1645,1508"/>
 <path fill="none" stroke="rgb(179,179,179)" stroke-linejoin="round" d="M 1495,482 L 1645,482"/>
 <path fill="none" stroke="rgb(179,179,179)" stroke-linejoin="round" d="M 1495,482 L 1645,482"/>
 <path fill="none" stroke="rgb(179,179,179)" stroke-linejoin="round" d="M 1645,9720 L 1645,482"/>
 <path fill="rgb(0,69,134)" stroke="none" d="M 26716,9720 L 27233,9720 27233,9720 26716,9720 Z"/>
 <path fill="rgb(0,69,134)" stroke="none" d="M 25682,9720 L 26199,9720 26199,8693 25682,8693 25682,9720 Z"/>
 <path fill="rgb(0,69,134)" stroke="none" d="M 24648,9720 L 25165,9720 25165,9720 24648,9720 Z"/>
 <path fill="rgb(0,69,134)" stroke="none" d="M 23614,9720 L 24131,9720 24131,9104 23614,9104 23614,9720 Z"/>
 <path fill="rgb(0,69,134)" stroke="none" d="M 22580,9720 L 23097,9720 23097,9720 22580,9720 Z"/>
 <path fill="rgb(0,69,134)" stroke="none" d="M 21546,9720 L 22063,9720 22063,9514 21546,9514 21546,9720 Z"/>
 <path fill="rgb(0,69,134)" stroke="none" d="M 20513,9720 L 21030,9720 21030,8488 20513,8488 20513,9720 Z"/>
 <path fill="rgb(0,69,134)" stroke="none" d="M 19479,9720 L 19996,9720 19996,9309 19479,9309 19479,9720 Z"/>
 <path fill="rgb(0,69,134)" stroke="none" d="M 18445,9720 L 18962,9720 18962,9720 18445,9720 Z"/>
 <path fill="rgb(0,69,134)" stroke="none" d="M 17411,9720 L 17928,9720 17928,9514 17411,9514 17411,9720 Z"/>
 <path fill="rgb(0,69,134)" stroke="none" d="M 16377,9720 L 16894,9720 16894,8077 16377,8077 16377,9720 Z"/>
 <path fill="rgb(0,69,134)" stroke="none" d="M 15343,9720 L 15860,9720 15860,9720 15343,9720 Z"/>
 <path fill="rgb(0,69,134)" stroke="none" d="M 14309,9720 L 14826,9720 14826,9720 14309,9720 Z"/>
 <path fill="rgb(0,69,134)" stroke="none" d="M 13276,9720 L 13793,9720 13793,9104 13276,9104 13276,9720 Z"/>
 <path fill="rgb(0,69,134)" stroke="none" d="M 12242,9720 L 12759,9720 12759,9720 12242,9720 Z"/>
 <path fill="rgb(0,69,134)" stroke="none" d="M 11208,9720 L 11725,9720 11725,9514 11208,9514 11208,9720 Z"/>
 <path fill="rgb(0,69,134)" stroke="none" d="M 10174,9720 L 10691,9720 10691,9720 10174,9720 Z"/>
 <path fill="rgb(0,69,134)" stroke="none" d="M 9140,9720 L 9657,9720 9657,8488 9140,8488 9140,9720 Z"/>
 <path fill="rgb(0,69,134)" stroke="none" d="M 8107,9720 L 8623,9720 8623,9104 8107,9104 8107,9720 Z"/>
 <path fill="rgb(0,69,134)" stroke="none" d="M 7073,9720 L 7590,9720 7590,9104 7073,9104 7073,9720 Z"/>
 <path fill="rgb(0,69,134)" stroke="none" d="M 6039,9720 L 6556,9720 6556,9720 6039,9720 Z"/>
 <path fill="rgb(0,69,134)" stroke="none" d="M 5005,9720 L 5522,9720 5522,9720 5005,9720 Z"/>
 <path fill="rgb(0,69,134)" stroke="none" d="M 3971,9720 L 4488,9720 4488,9309 3971,9309 3971,9720 Z"/>
 <path fill="rgb(0,69,134)" stroke="none" d="M 2937,9720 L 3454,9720 3454,4998 2937,4998 2937,9720 Z"/>
 <path fill="rgb(0,69,134)" stroke="none" d="M 1903,9720 L 2420,9720 2420,9514 1903,9514 1903,9720 Z"/>
 <path fill="rgb(255,66,14)" stroke="none" d="M 26716,9720 L 27233,9720 27233,9514 26716,9514 26716,9720 Z"/>
 <path fill="rgb(255,66,14)" stroke="none" d="M 25682,8693 L 26199,8693 26199,7872 25682,7872 25682,8693 Z"/>
 <path fill="rgb(255,66,14)" stroke="none" d="M 24648,9720 L 25165,9720 25165,9309 24648,9309 24648,9720 Z"/>
 <path fill="rgb(255,66,14)" stroke="none" d="M 23614,9104 L 24131,9104 24131,8693 23614,8693 23614,9104 Z"/>
 <path fill="rgb(255,66,14)" stroke="none" d="M 22580,9720 L 23097,9720 23097,9514 22580,9514 22580,9720 Z"/>
 <path fill="rgb(255,66,14)" stroke="none" d="M 20513,8488 L 21030,8488 21030,2329 20513,2329 20513,8488 Z"/>
 <path fill="rgb(255,66,14)" stroke="none" d="M 19479,9309 L 19996,9309 19996,9104 19479,9104 19479,9309 Z"/>
 <path fill="rgb(255,66,14)" stroke="none" d="M 18445,9720 L 18962,9720 18962,9104 18445,9104 18445,9720 Z"/>
 <path fill="rgb(255,66,14)" stroke="none" d="M 16377,8077 L 16894,8077 16894,7872 16377,7872 16377,8077 Z"/>
 <path fill="rgb(255,66,14)" stroke="none" d="M 15343,9720 L 15860,9720 15860,8898 15343,8898 15343,9720 Z"/>
 <path fill="rgb(255,66,14)" stroke="none" d="M 14309,9720 L 14826,9720 14826,9514 14309,9514 14309,9720 Z"/>
 <path fill="rgb(255,66,14)" stroke="none" d="M 13276,9104 L 13793,9104 13793,8077 13276,8077 13276,9104 Z"/>
 <path fill="rgb(255,66,14)" stroke="none" d="M 12242,9720 L 12759,9720 12759,9514 12242,9514 12242,9720 Z"/>
 <path fill="rgb(255,66,14)" stroke="none" d="M 10174,9720 L 10691,9720 10691,7256 10174,7256 10174,9720 Z"/>
 <path fill="rgb(255,66,14)" stroke="none" d="M 8107,9104 L 8623,9104 8623,8898 8107,8898 8107,9104 Z"/>
 <path fill="rgb(255,66,14)" stroke="none" d="M 7073,9104 L 7590,9104 7590,8693 7073,8693 7073,9104 Z"/>
 <path fill="rgb(255,66,14)" stroke="none" d="M 6039,9720 L 6556,9720 6556,9309 6039,9309 6039,9720 Z"/>
 <path fill="rgb(255,66,14)" stroke="none" d="M 5005,9720 L 5522,9720 5522,9309 5005,9309 5005,9720 Z"/>
 <path fill="rgb(255,66,14)" stroke="none" d="M 2937,4998 L 3454,4998 3454,1713 2937,1713 2937,4998 Z"/>
 <text class="TextShape" transform="rotate(-70.9 937 13951)"><tspan class="TextParagraph" font-family="Liberation Sans, sans-serif" font-size="353px" font-weight="400"><tspan class="TextPosition" x="937" y="13951"><tspan fill="rgb(0,0,0)" stroke="none">Additional Development by</tspan></tspan></tspan></text>
 <text class="TextShape" transform="rotate(-70.9 2179 13351)"><tspan class="TextParagraph" font-family="Liberation Sans, sans-serif" font-size="353px" font-weight="400"><tspan class="TextPosition" x="2179" y="13351"><tspan fill="rgb(0,0,0)" stroke="none">Additional Graphics by</tspan></tspan></tspan></text>
 <text class="TextShape" transform="rotate(-70.9 3359 12925)"><tspan class="TextParagraph" font-family="Liberation Sans, sans-serif" font-size="353px" font-weight="400"><tspan class="TextPosition" x="3359" y="12925"><tspan fill="rgb(0,0,0)" stroke="none">Additional Music by</tspan></tspan></tspan></text>
 <text class="TextShape" transform="rotate(-70.9 4375 12975)"><tspan class="TextParagraph" font-family="Liberation Sans, sans-serif" font-size="353px" font-weight="400"><tspan class="TextPosition" x="4375" y="12975"><tspan fill="rgb(0,0,0)" stroke="none">Additional Sound by</tspan></tspan></tspan></text>
 <text class="TextShape" transform="rotate(-70.9 5875 11624)"><tspan class="TextParagraph" font-family="Liberation Sans, sans-serif" font-size="353px" font-weight="400"><tspan class="TextPosition" x="5875" y="11624"><tspan fill="rgb(0,0,0)" stroke="none">Casting by</tspan></tspan></tspan></text>
 <text class="TextShape" transform="rotate(-70.9 6633 12425)"><tspan class="TextParagraph" font-family="Liberation Sans, sans-serif" font-size="353px" font-weight="400"><tspan class="TextPosition" x="6633" y="12425"><tspan fill="rgb(0,0,0)" stroke="none">Contributions by</tspan></tspan></tspan></text>
 <text class="TextShape" transform="rotate(-70.9 7787 12075)"><tspan class="TextParagraph" font-family="Liberation Sans, sans-serif" font-size="353px" font-weight="400"><tspan class="TextPosition" x="7787" y="12075"><tspan fill="rgb(0,0,0)" stroke="none">Cutscenes by</tspan></tspan></tspan></text>
 <text class="TextShape" transform="rotate(-70.9 8831 12050)"><tspan class="TextParagraph" font-family="Liberation Sans, sans-serif" font-size="353px" font-weight="400"><tspan class="TextPosition" x="8831" y="12050"><tspan fill="rgb(0,0,0)" stroke="none">Developed by</tspan></tspan></tspan></text>
 <text class="TextShape" transform="rotate(-70.9 9854 12075)"><tspan class="TextParagraph" font-family="Liberation Sans, sans-serif" font-size="353px" font-weight="400"><tspan class="TextPosition" x="9854" y="12075"><tspan fill="rgb(0,0,0)" stroke="none">Distributed by</tspan></tspan></tspan></text>
 <text class="TextShape" transform="rotate(-70.9 11138 11349)"><tspan class="TextParagraph" font-family="Liberation Sans, sans-serif" font-size="353px" font-weight="400"><tspan class="TextPosition" x="11138" y="11349"><tspan fill="rgb(0,0,0)" stroke="none">Fonts by</tspan></tspan></tspan></text>
 <text class="TextShape" transform="rotate(-70.9 11776 12500)"><tspan class="TextParagraph" font-family="Liberation Sans, sans-serif" font-size="353px" font-weight="400"><tspan class="TextPosition" x="11776" y="12500"><tspan fill="rgb(0,0,0)" stroke="none">Game Engine by</tspan></tspan></tspan></text>
 <text class="TextShape" transform="rotate(-70.9 13018 11899)"><tspan class="TextParagraph" font-family="Liberation Sans, sans-serif" font-size="353px" font-weight="400"><tspan class="TextPosition" x="13018" y="11899"><tspan fill="rgb(0,0,0)" stroke="none">Localized by</tspan></tspan></tspan></text>
 <text class="TextShape" transform="rotate(-70.9 14163 11575)"><tspan class="TextParagraph" font-family="Liberation Sans, sans-serif" font-size="353px" font-weight="400"><tspan class="TextPosition" x="14163" y="11575"><tspan fill="rgb(0,0,0)" stroke="none">Manual by</tspan></tspan></tspan></text>
 <text class="TextShape" transform="rotate(-70.9 14999 12150)"><tspan class="TextParagraph" font-family="Liberation Sans, sans-serif" font-size="353px" font-weight="400"><tspan class="TextPosition" x="14999" y="12150"><tspan fill="rgb(0,0,0)" stroke="none">Middleware by</tspan></tspan></tspan></text>
 <text class="TextShape" transform="rotate(-70.9 15833 12727)"><tspan class="TextParagraph" font-family="Liberation Sans, sans-serif" font-size="353px" font-weight="400"><tspan class="TextPosition" x="15833" y="12727"><tspan fill="rgb(0,0,0)" stroke="none">Motion Capture by</tspan></tspan></tspan></text>
 <text class="TextShape" transform="rotate(-70.9 17325 11399)"><tspan class="TextParagraph" font-family="Liberation Sans, sans-serif" font-size="353px" font-weight="400"><tspan class="TextPosition" x="17325" y="11399"><tspan fill="rgb(0,0,0)" stroke="none">Music by</tspan></tspan></tspan></text>
 <text class="TextShape" transform="rotate(-70.9 17841 12901)"><tspan class="TextParagraph" font-family="Liberation Sans, sans-serif" font-size="353px" font-weight="400"><tspan class="TextPosition" x="17841" y="12901"><tspan fill="rgb(0,0,0)" stroke="none">Package Design by</tspan></tspan></tspan></text>
 <text class="TextShape" transform="rotate(-70.9 19367 11475)"><tspan class="TextParagraph" font-family="Liberation Sans, sans-serif" font-size="353px" font-weight="400"><tspan class="TextPosition" x="19367" y="11475"><tspan fill="rgb(0,0,0)" stroke="none">Ported by</tspan></tspan></tspan></text>
 <text class="TextShape" transform="rotate(-70.9 20237 11949)"><tspan class="TextParagraph" font-family="Liberation Sans, sans-serif" font-size="353px" font-weight="400"><tspan class="TextPosition" x="20237" y="11949"><tspan fill="rgb(0,0,0)" stroke="none">Published by</tspan></tspan></tspan></text>
 <text class="TextShape" transform="rotate(-70.9 21443 11449)"><tspan class="TextParagraph" font-family="Liberation Sans, sans-serif" font-size="353px" font-weight="400"><tspan class="TextPosition" x="21443" y="11449"><tspan fill="rgb(0,0,0)" stroke="none">Sound by</tspan></tspan></tspan></text>
 <text class="TextShape" transform="rotate(-70.9 22099 12551)"><tspan class="TextParagraph" font-family="Liberation Sans, sans-serif" font-size="353px" font-weight="400"><tspan class="TextPosition" x="22099" y="12551"><tspan fill="rgb(0,0,0)" stroke="none">Sound Engine by</tspan></tspan></tspan></text>
 <text class="TextShape" transform="rotate(-70.9 23459 11599)"><tspan class="TextParagraph" font-family="Liberation Sans, sans-serif" font-size="353px" font-weight="400"><tspan class="TextPosition" x="23459" y="11599"><tspan fill="rgb(0,0,0)" stroke="none">Testing by</tspan></tspan></tspan></text>
 <text class="TextShape" transform="rotate(-70.9 24011 13001)"><tspan class="TextParagraph" font-family="Liberation Sans, sans-serif" font-size="353px" font-weight="400"><tspan class="TextPosition" x="24011" y="13001"><tspan fill="rgb(0,0,0)" stroke="none">Voice Production by</tspan></tspan></tspan></text>
 <text class="TextShape" transform="rotate(-70.9 25079 12901)"><tspan class="TextParagraph" font-family="Liberation Sans, sans-serif" font-size="353px" font-weight="400"><tspan class="TextPosition" x="25079" y="12901"><tspan fill="rgb(0,0,0)" stroke="none">Voice Recording by</tspan></tspan></tspan></text>
 <text class="TextShape" transform="rotate(-70.9 26587 11525)"><tspan class="TextParagraph" font-family="Liberation Sans, sans-serif" font-size="353px" font-weight="400"><tspan class="TextPosition" x="26587" y="11525"><tspan fill="rgb(0,0,0)" stroke="none">Writing by</tspan></tspan></tspan></text>
 <text class="TextShape"><tspan class="TextParagraph" font-family="Liberation Sans, sans-serif" font-size="353px" font-weight="400"><tspan class="TextPosition" x="1210" y="9841"><tspan fill="rgb(0,0,0)" stroke="none">0</tspan></tspan></tspan></text>
 <text class="TextShape"><tspan class="TextParagraph" font-family="Liberation Sans, sans-serif" font-size="353px" font-weight="400"><tspan class="TextPosition" x="1210" y="8814"><tspan fill="rgb(0,0,0)" stroke="none">5</tspan></tspan></tspan></text>
 <text class="TextShape"><tspan class="TextParagraph" font-family="Liberation Sans, sans-serif" font-size="353px" font-weight="400"><tspan class="TextPosition" x="1025" y="7787"><tspan fill="rgb(0,0,0)" stroke="none">10</tspan></tspan></tspan></text>
 <text class="TextShape"><tspan class="TextParagraph" font-family="Liberation Sans, sans-serif" font-size="353px" font-weight="400"><tspan class="TextPosition" x="1025" y="6761"><tspan fill="rgb(0,0,0)" stroke="none">15</tspan></tspan></tspan></text>
 <text class="TextShape"><tspan class="TextParagraph" font-family="Liberation Sans, sans-serif" font-size="353px" font-weight="400"><tspan class="TextPosition" x="1025" y="5734"><tspan fill="rgb(0,0,0)" stroke="none">20</tspan></tspan></tspan></text>
 <text class="TextShape"><tspan class="TextParagraph" font-family="Liberation Sans, sans-serif" font-size="353px" font-weight="400"><tspan class="TextPosition" x="1025" y="4708"><tspan fill="rgb(0,0,0)" stroke="none">25</tspan></tspan></tspan></text>
 <text class="TextShape"><tspan class="TextParagraph" font-family="Liberation Sans, sans-serif" font-size="353px" font-weight="400"><tspan class="TextPosition" x="1025" y="3681"><tspan fill="rgb(0,0,0)" stroke="none">30</tspan></tspan></tspan></text>
 <text class="TextShape"><tspan class="TextParagraph" font-family="Liberation Sans, sans-serif" font-size="353px" font-weight="400"><tspan class="TextPosition" x="1025" y="2655"><tspan fill="rgb(0,0,0)" stroke="none">35</tspan></tspan></tspan></text>
 <text class="TextShape"><tspan class="TextParagraph" font-family="Liberation Sans, sans-serif" font-size="353px" font-weight="400"><tspan class="TextPosition" x="1025" y="1628"><tspan fill="rgb(0,0,0)" stroke="none">40</tspan></tspan></tspan></text>
 <text class="TextShape"><tspan class="TextParagraph" font-family="Liberation Sans, sans-serif" font-size="353px" font-weight="400"><tspan class="TextPosition" x="1025" y="602"><tspan fill="rgb(0,0,0)" stroke="none">45</tspan></tspan></tspan></text>
 <path fill="rgb(0,69,134)" stroke="none" d="M 11732,5031 L 11627,5031 11627,4820 11838,4820 11838,5031 11732,5031 Z"/>
 <path fill="rgb(255,66,14)" stroke="none" d="M 11732,4533 L 11627,4533 11627,4322 11838,4322 11838,4533 11732,4533 Z"/>
 <text class="TextShape"><tspan class="TextParagraph" font-family="Liberation Sans, sans-serif" font-size="353px" font-weight="400"><tspan class="TextPosition" x="11938" y="4547"><tspan fill="rgb(0,0,0)" stroke="none">HQ outside Japan</tspan></tspan></tspan></text>
 <text class="TextShape"><tspan class="TextParagraph" font-family="Liberation Sans, sans-serif" font-size="353px" font-weight="400"><tspan class="TextPosition" x="11938" y="5045"><tspan fill="rgb(0,0,0)" stroke="none">HQ in Japan</tspan></tspan></tspan></text>
</svg>